<svg width="500" height="500" viewBox="0 0 500 500" fill="none" xmlns="http://www.w3.org/2000/svg">
<path d="M243 416.3L24.5995 287.2C17.5995 283.3 11.6995 276.9 18.4995 272.7L237.7 146.3C241 144.3 246 142.9 249.3 144.9L478.6 278C485.6 282 486.8 293.3 479.9 297.4L271.9 416.2C263 421.3 252 421.4 243 416.3Z" fill="#FF9494"/>
<path d="M403.601 226.1C405.901 226 408.101 226.4 410.101 227.4C412.201 228.6 413.801 230.4 414.701 232.6C415.701 234.7 416.201 237.7 418.201 239.1C419.001 239.5 419.701 240.2 420.301 240.9C421.301 242.4 421.601 244.3 421.001 245.9C420.101 247.8 416.201 248.9 414.401 248.6" fill="#EBFF99"/>
<path d="M401.8 226.4C396.4 226.9 392 230.7 390.7 236C390 238.6 390 241.3 390.6 243.9C391.1 246 392.3 249.6 394.9 249.8C398.3 250 399.5 246.8 400.5 244.1C401.5 241.4 402.7 238.5 405.5 237.5C408.3 236.5 411.4 237.2 413.5 239.3L401.8 226.4Z" fill="#6D3421"/>
<path d="M417.501 240.4C415.401 237.7 413.701 234.8 411.701 232C410.601 230.2 409.201 228.6 407.701 227.1C402.901 224.8 396.901 226.9 393.301 231C393.801 231.1 394.501 231.2 394.801 231.3C396.901 232.1 398.801 233.5 400.301 235.2C402.401 237.6 404.101 240.4 405.901 242.9C408.901 246.9 413.001 250.3 418.201 247.9C421.601 246.3 419.001 242.3 417.501 240.4Z" fill="#EBFF99"/>
<path d="M434.5 205.7C434.5 205.7 445.3 204.8 445.1 221.9C444.9 239 428.8 227.8 432.3 217.5" fill="#6D3421"/>
<path d="M432.9 222.5C432.8 217.3 438.6 213.5 443.5 212.8C442.4 208.3 438.4 205.2 433.7 205.2C426.3 205.4 420.8 212.9 419.5 221.8C418.2 230.7 425 236.2 425 236.2L428.6 239.2C435.2 236.7 432.7 227.2 432.9 222.5Z" fill="#EBFF99"/>
<path d="M462.3 234.7C462.1 231.5 461.3 228.3 459.8 225.4C458.4 222.6 455.8 220.6 452.8 220L446.7 231.7C446.7 231.7 455.8 215.9 452.1 228.1C448.4 240.3 460.6 254 462.2 235.8C462.3 235.4 462.3 235.1 462.3 234.7Z" fill="#6D3421"/>
<path d="M419.4 265.2C419.4 265.2 411.3 270.5 413.5 282.9C414.3 287.2 415.5 291.4 417.1 295.4C418.7 299.4 419.8 304.6 423.9 306.9C427.7 309 433.5 309.4 437.3 307.1C440.8 305 442 300.1 443.3 296.5C444.8 292.1 445.9 287.5 446.4 282.9C450.3 253 419.4 265.2 419.4 265.2Z" fill="#68E1FD"/>
<path d="M430.3 271.3C436.873 271.3 442.2 269.375 442.2 267C442.2 264.625 436.873 262.7 430.3 262.7C423.728 262.7 418.4 264.625 418.4 267C418.4 269.375 423.728 271.3 430.3 271.3Z" fill="#6D3421"/>
<path d="M431.3 244.2C429.6 240.2 426.5 236.8 425.6 232.6C424.3 226.7 426.7 220.6 431.7 217.1C432.6 216.4 431.7 214.9 430.8 215.6C423.2 221.1 421.8 230.5 426.2 238.5C427.6 241 429.4 243.4 430.2 246.1C431.3 249.7 430.1 252.2 428.4 255C428.5 252.4 427.6 249.8 425.8 247.8C423.8 246 420.9 245.7 418.5 244.9C413.8 243.3 409.6 240.6 408.8 235.3C408.6 234.2 406.9 234.7 407.1 235.8C407.8 240.1 410.6 243.2 414.4 245.1C416.7 246.1 419 246.9 421.4 247.5C423.5 248.3 425.2 249.9 426 252C427.1 254.5 426.4 256.3 425.7 258.9C424.9 262.1 423.6 264.9 425.8 268C426.4 268.9 428 268 427.3 267.1C423.7 262.2 429.4 257.5 431.3 253.3C432.6 250.3 432.6 247 431.3 244.2Z" fill="#6D3421"/>
<path d="M453.1 233.4C445.6 232.1 440.5 237.9 441 245.1C441.2 246.9 441.5 248.7 442 250.5C442.3 251.8 443.3 253.9 443 255.2C442.5 257.5 440.9 259.4 438.7 260.3C435.5 261.8 433.4 263.7 432.4 267.2C432.3 267.7 432.5 268.1 433 268.3C433.5 268.4 433.9 268.2 434.1 267.7C435.8 261.4 444.7 262.3 444.8 255.3C444.8 251.9 443 248.7 442.8 245.3C442.4 239.3 446.3 234.1 452.7 235.3C453.8 235.3 454.2 233.6 453.1 233.4Z" fill="#6D3421"/>
<path d="M459.8 225.4C456.9 220 451.6 218.8 446.4 220.3C445.7 220.6 445 220.9 444.3 221.3C431.3 230.9 440.5 252.7 442.5 252.5C449.1 252 448.4 248.1 450.6 237.1C451.4 232 455.8 228.3 461 228.4C460.8 227.5 460.4 226.4 459.8 225.4Z" fill="#EBFF99"/>
<path d="M457 221.9C452.6 221.2 448.2 223.3 445.9 227.2C441.1 235.1 442.2 244.4 442.9 253.2C443 254.3 444.7 254.3 444.7 253.2C444.2 246.9 443.3 240.5 445.1 234.3C446 231.2 447 227.8 449.4 225.7C452.1 223.3 455.9 222.8 459.2 224.3L458.5 223.4C457.9 222.9 457.5 222.4 457 221.9Z" fill="#6D3421"/>
<path d="M268.199 283C268.199 283 267.599 286.8 262.199 290.2C256.799 293.6 245.899 296.2 245.899 300.5C245.899 304.8 248.999 307.1 252.999 307.1C256.999 307.1 270.199 299.7 275.299 298.8C279.099 298 282.699 296.7 286.099 295C286.099 295 286.999 281.3 284.099 275.9C281.199 270.5 268.199 283 268.199 283Z" fill="#383838"/>
<path d="M297.4 305.4C297.4 305.4 286 323.7 284.5 326.8C283.2 329.6 280.7 335.1 282.2 337.7C285.2 342.8 297 339 299.9 335.4C303.9 330.5 305.6 320.5 307 319.4C308.4 318.1 309.7 316.8 311 315.4L313.1 300.6" fill="#383838"/>
<path d="M260.7 213.7L268.3 282.9C268.3 282.9 277.9 288.5 288.6 280.9V237.4L295.2 306.6C295.2 306.6 301.3 315.7 312.9 309.6L317.4 222.7L260.8 202.4" fill="#6D3421"/>
<path d="M173.1 179.1H175.9C178.8 179.1 181.2 181.5 181.2 184.4V274.1C181.2 277 178.8 279.4 175.9 279.4H173.1C170.2 279.4 167.8 277 167.8 274.1V184.4C167.8 181.5 170.1 179.1 173.1 179.1Z" fill="#6D3421"/>
<path d="M277.2 295.4C280.9 295.4 283.9 298.4 283.9 302.1V388.9C283.9 392.6 280.9 395.6 277.2 395.6C273.5 395.6 270.5 392.6 270.5 388.9V302.1C270.6 298.4 273.5 295.4 277.2 295.4Z" fill="#6D3421"/>
<path d="M333.599 251.7C337.299 251.7 340.299 254.7 340.299 258.4V357.6C340.299 361.3 337.299 364.3 333.599 364.3C329.899 364.3 326.899 361.3 326.899 357.6V258.4C326.899 254.7 329.899 251.7 333.599 251.7Z" fill="#6D3421"/>
<path d="M121.9 203.1H124.7C127.6 203.1 130 205.5 130 208.4V298.1C130 301 127.6 303.4 124.7 303.4H121.9C119 303.4 116.6 301 116.6 298.1V208.4C116.7 205.5 119 203.1 121.9 203.1Z" fill="#6D3421"/>
<path d="M112.7 199.9V213.4L272.6 303.6L347 261V248" fill="#68E1FD"/>
<path d="M112.7 199.9L187.8 154.3L347 248L272.6 291.5L112.7 199.9Z" fill="#FF780B"/>
<path opacity="0.5" d="M112.7 199.9L187.8 154.3L347 248L272.6 291.5L112.7 199.9Z" fill="#F7F7F7"/>
<path d="M138 179.4L139.5 198.6C139.7 201.6 141.3 204.3 143.9 205.8C150.7 210 158.6 212 166.6 211.8C176.6 211.6 182.6 208.5 185.8 206C187.7 204.5 189 202.3 189.3 199.8L192.1 179.4" fill="#68E1FD"/>
<path d="M142.9 185.3C140.7 185.7 136.2 186.1 134.8 183.7C134.3 182.5 134.3 181.1 134.8 179.9C135.4 178.1 136.9 178.1 138.6 178.4C140.6 178.7 141.5 175.6 139.5 175.3C137.2 175 134.8 174.8 133.1 176.7C131.7 178.6 131.1 180.9 131.5 183.2C132.4 188.8 139.6 189.1 143.9 188.3C145.8 188 144.9 185 142.9 185.3Z" fill="#68E1FD"/>
<path d="M198.1 175.8C197.1 170.3 191.2 169.6 186.6 170.4C184.6 170.7 185.4 173.8 187.5 173.5C190 173.1 193.7 172.9 194.9 175.8C195.3 176.9 195.5 178.1 194.5 178.7C193.2 179.3 191.8 179.5 190.4 179.3C188.4 179 187.5 182.1 189.5 182.4C191.9 182.8 194.5 182.4 196.6 181.2C198.5 180 198.5 177.8 198.1 175.8Z" fill="#68E1FD"/>
<path d="M165 194.6C179.912 194.6 192 187.795 192 179.4C192 171.005 179.912 164.2 165 164.2C150.088 164.2 138 171.005 138 179.4C138 187.795 150.088 194.6 165 194.6Z" fill="#EBFF99"/>
<path d="M165 189.8C176.984 189.8 186.7 185.144 186.7 179.4C186.7 173.656 176.984 169 165 169C153.015 169 143.3 173.656 143.3 179.4C143.3 185.144 153.015 189.8 165 189.8Z" fill="#FF780B"/>
<path d="M234.699 237.1L247.299 229.7C255.899 224.7 258.799 213.7 253.799 205.1C252.199 202.4 249.999 200.1 247.299 198.6L235.599 191.7C230.199 188.5 223.399 188.3 217.899 191.3L204.199 198.6C195.399 203.3 192.099 214.1 196.699 222.9C198.399 226.1 200.999 228.7 204.199 230.4L216.999 237.3C222.499 240.4 229.199 240.3 234.699 237.1Z" fill="#F7F7F7"/>
<path d="M240.7 164.6C240.1 165.1 239.4 165.6 238.9 166.1C239.4 165.4 239.8 164.8 240.3 164.1C240.9 163.2 239.5 162.4 238.9 163.3L238.5 163.8H238.4C238.3 163.3 237.9 163 237.4 163.1C237.5 162.8 237.7 162.6 237.9 162.3C238.1 161.9 238 161.4 237.7 161.2C237.6 161.1 237.4 161.1 237.2 161.1C237.6 160.5 238 160 238.3 159.4C238.5 159 238.4 158.5 238 158.3C237.7 158.1 237.3 158.2 237 158.4C236.3 159 235.5 159.8 234.8 160.5L234.9 160.4C235.1 160 235 159.5 234.6 159.3C234.5 159.2 234.4 159.2 234.2 159.2H234C233.9 159.2 233.8 159.3 233.8 159.3H233.7L233.6 159.4C233.4 159 232.9 158.8 232.5 159C232.4 159.1 232.3 159.2 232.2 159.3L227 167.5C225.3 170.1 223.7 174 221.4 176.2C219.8 177.7 213.4 178.8 214.3 182.3C214.4 182.6 214.6 182.8 214.9 182.9L215.4 183C214.6 183.9 214.2 185.1 214.5 186.3C214.6 186.7 215 187 215.5 186.9C215.3 187.8 215.2 188.7 215.3 189.6C215.3 190.3 215.7 190.9 216.4 191.1C216.7 191.2 217 191.1 217.3 190.9C217.4 193.1 218.3 194.9 221 194.8C221.4 194.8 221.8 194.4 221.8 194V193.9C221.9 193.8 222 193.6 222.1 193.4C222.2 192.2 221.9 191 222.1 189.8C222.5 187.3 225.3 187.3 227.3 188.2C227.7 188.4 228.2 188.3 228.5 187.9C228.6 187.8 228.6 187.7 228.6 187.5L228.3 185.3C228.4 185.2 228.5 185.1 228.5 184.9C231 177.2 235.8 170.4 242.2 165.4C242.6 165.1 241.5 164 240.7 164.6Z" fill="#8B6851"/>
<path d="M262.2 145.6C262.2 145.6 243.6 166.4 241.8 168.1C241.8 168.1 230 161.8 228.3 162.8C228.3 162.8 257.9 119.1 266.2 116.4C274.5 113.7 269.5 143.5 262.2 145.6Z" fill="#F7F7F7"/>
<path d="M264.4 152.5C264.4 152.5 262.6 134.6 262.6 133.5C262.6 132.4 265 116.4 268.2 116.4C271.4 116.4 281.1 110.6 295.4 118.7C309.7 126.8 312.2 133.1 313 137.9C313.8 142.7 316.5 172.5 316.5 180.7C316.5 188.9 293.1 190.6 293.1 190.6" fill="#F7F7F7"/>
<path d="M271.3 116.4C271.3 116.4 268.8 126.4 268.8 133.4C268.8 137.8 269.2 142.3 270.1 146.6L283.7 151.4C283.7 151.4 282.3 120 298.1 116.4L301.9 119.6C301.9 119.6 292.1 120.1 289.5 131.3C287.9 138.3 287.6 145.5 288.5 152.6L304.4 160.3L316.4 171.1V224.4L307 226.1L270.5 204.8C270.5 204.8 271.2 179.1 270.5 176.7C269.8 174.3 264.1 152.7 264.4 152.4C265.1 150.5 265.7 148.5 266.2 146.5C266.2 146.5 264.4 122.3 268.2 116.3L271.3 116.4Z" fill="#68E1FD"/>
<path d="M277.199 191.6C275.999 192.4 274.799 193.1 273.599 193.9C273.899 193.6 274.199 193.3 274.499 193C274.599 192.9 274.599 192.8 274.699 192.6C275.199 192 275.699 191.3 276.199 190.6C276.299 190.5 276.299 190.3 276.299 190.1L276.899 189.6C277.199 189.3 277.199 188.9 276.999 188.6C276.899 188.5 276.799 188.4 276.599 188.4C276.499 188 276.099 187.8 275.699 188C275.599 188 275.599 188.1 275.499 188.1C274.899 188.5 274.199 189 273.599 189.5C273.199 189.6 272.799 189.7 272.499 189.9C273.299 189.1 274.099 188.3 274.799 187.4C275.099 187.1 275.099 186.6 274.799 186.3L274.699 186.2C275.499 185.5 274.299 184.4 273.599 185.1L272.699 185.9L272.599 185.8L273.199 185.2C273.799 184.4 272.799 183.3 272.099 184.1L271.699 184.5C271.699 184.1 271.299 183.7 270.899 183.8C270.699 183.8 270.499 183.9 270.399 184C267.299 187.2 264.199 190.4 261.099 193.5C259.599 195.2 257.899 196.8 255.999 198.2C253.899 199.6 251.999 199.7 249.699 200.1C243.799 201 242.699 206.2 244.499 211.4C244.599 211.8 245.099 212.1 245.499 212L246.499 211.8C246.599 211.8 246.699 211.7 246.799 211.7C247.299 213.4 248.399 214.4 250.699 213.1L250.799 213C251.699 214.3 253.099 214.3 254.499 213.6C254.599 213.6 254.699 213.5 254.699 213.4C254.999 213.8 255.499 214 255.999 213.9C256.899 213.8 257.399 212.9 257.499 212.1C257.499 211.2 257.399 210.3 257.099 209.5C258.499 208.9 259.899 208.1 261.199 207.2C262.999 205.8 263.699 203.9 265.199 202.3C268.699 198.5 274.199 196 278.499 193.2C278.899 192.4 278.099 191 277.199 191.6Z" fill="#8B6851"/>
<path d="M291.3 134.7C291.3 134.7 287 156.1 284.9 161.3C282.8 166.5 266.3 184.9 266.3 184.9C266.3 184.9 274.8 197.3 276.1 196.3C285.2 187.3 293.4 177.4 300.6 166.7C311.7 150.2 314.7 140.1 312 134.8C309.3 129.5 294.7 125.9 291.3 134.7Z" fill="#F7F7F7"/>
<path d="M277 120.8C277 120.8 278.9 126.5 279.4 127.1C279.4 127.1 286 127.5 288.6 117.2L288 109.1" fill="#8B6851"/>
<path d="M291.9 95.8999C291.9 95.8999 294.2 98.9999 293.2 102.1C292.2 105.2 291.1 105.7 291.1 105.7C291.1 105.7 292.4 111.9 286.9 113.2C281.4 114.5 278.6 103.5 280.9 101.8C283.2 100.1 291.9 95.8999 291.9 95.8999Z" fill="#6D3421"/>
<path d="M267.9 104C266.6 103.5 269.7 122.7 273.1 123.8C276.5 124.9 284.8 118.7 285.8 117.3C286.5 116 286.9 114.6 286.9 113.1C286.9 113.1 290.3 108.4 287.5 107.7C286.1 107.4 284.6 108.3 284.3 109.7C284.3 109.8 284.3 109.9 284.3 110L283.2 111.5L282 104C282 104 272.5 105.8 267.9 104Z" fill="#8B6851"/>
<path d="M267 104V105.1C267 105.8 267.5 106.4 268.3 106.5C272.1 106.9 284.3 107.3 293.6 98.6999V94.8999L275.9 99.5999" fill="#383838"/>
<path d="M262.2 94.2001C262.2 94.2001 259.4 102.5 267.9 104.1C272.6 105.2 277.5 103.2 280.1 99.1001C280.1 99.1001 283.3 102 290.1 99.2001C296.9 96.4001 294.3 88.6001 291.9 87.2001C291.9 87.2001 292.9 80.5001 284.8 80.1001C276.7 79.7001 273.2 83.4001 273.2 83.4001C273.2 83.4001 256.6 84.3001 262.2 94.2001Z" fill="#68E1FD"/>
<path d="M157.3 136.5C155.3 135.4 152.4 134.8 151.1 132.7C149.3 129.6 153.4 127.6 155.6 126.7C157.3 126 156.6 123.2 154.8 123.9C152.3 124.9 149.7 126.1 148.4 128.6C147.2 130.8 147.6 133.6 149.4 135.4C151.4 137.7 154.5 138.1 156.9 139.8C158.1 140.7 159.3 142.1 158.5 143.7C157.7 145.3 156 145.7 154.5 146.1C149.6 147.3 143.3 149.3 143.3 155.5C143.4 158 144.8 160.2 147 161.3C149.7 162.8 152.9 162.7 155.9 162.4C157.8 162.2 157.8 159.3 155.9 159.5C153.2 159.7 150 160.1 147.8 158.3C145.6 156.5 146.1 153.9 147.8 152.1C151.2 148.5 157.2 150.1 160.5 146.3C163.4 142.5 160.7 138.3 157.3 136.5Z" fill="#FF780B"/>
<path d="M177.599 140.8C176.199 140.1 174.299 139.7 173.499 138.3C172.199 136.2 174.999 134.9 176.499 134.3C177.699 133.8 177.199 131.9 175.999 132.4C174.199 132.9 172.699 134 171.699 135.5C170.899 137 171.199 138.8 172.399 140C173.799 141.5 175.799 141.8 177.499 143C178.299 143.6 179.099 144.6 178.599 145.5C177.999 146.4 176.999 147 175.899 147C172.599 147.8 168.399 149.1 168.399 153.3C168.499 154.9 169.399 156.4 170.799 157.2C172.699 158.1 174.799 158.3 176.799 158C178.099 157.9 178.099 155.9 176.799 156C174.999 156.1 172.899 156.4 171.399 155.2C170.299 154.2 170.099 152.5 171.099 151.4C171.199 151.3 171.299 151.2 171.399 151.1C173.699 148.7 177.699 149.7 179.899 147.2C181.699 144.8 179.899 142 177.599 140.8Z" fill="#FF780B"/>
<path d="M228 197.8C227.3 197.8 226.7 198.4 226.7 199.1C226.7 199.8 227.3 200.4 228 200.4C228.7 200.4 229.3 199.8 229.3 199.1C229.3 198.4 228.7 197.8 228 197.8Z" fill="#FF780B"/>
<path d="M211.8 204.8C211.1 204.8 210.5 205.4 210.5 206.1C210.5 206.8 211.1 207.4 211.8 207.4C212.5 207.4 213.1 206.8 213.1 206.1C213.1 205.4 212.5 204.8 211.8 204.8Z" fill="#FF780B"/>
<path d="M237.8 221.7C237.1 221.7 236.5 222.3 236.5 223C236.5 223.7 237.1 224.3 237.8 224.3C238.5 224.3 239.1 223.7 239.1 223C239.1 222.3 238.5 221.7 237.8 221.7Z" fill="#FF780B"/>
<path d="M228.3 209.7C227.6 209.6 227 210.2 226.9 210.9C226.8 211.6 227.4 212.2 228.1 212.3C228.2 212.3 228.3 212.3 228.3 212.3C229 212.2 229.5 211.6 229.5 210.9C229.4 210.3 228.9 209.8 228.3 209.7Z" fill="#FF780B"/>
<path d="M214.6 222.4C213.9 222.4 213.3 223 213.3 223.7C213.3 224.4 213.9 225 214.6 225C215.3 225 215.9 224.4 215.9 223.7C215.9 222.9 215.3 222.4 214.6 222.4Z" fill="#FF780B"/>
<path d="M205.9 216.4C205.2 216.4 204.6 217 204.6 217.7C204.6 218.4 205.2 219 205.9 219C206.6 219 207.2 218.4 207.2 217.7C207.2 217 206.6 216.4 205.9 216.4Z" fill="#FF780B"/>
<path d="M228.699 230.1C227.999 230.1 227.399 230.7 227.399 231.4C227.399 232.1 227.999 232.7 228.699 232.7C229.399 232.7 229.999 232.1 229.999 231.4C229.999 230.7 229.399 230.1 228.699 230.1Z" fill="#FF780B"/>
<path d="M243.8 216.1C243.1 216 242.5 216.6 242.4 217.3C242.3 218 242.9 218.6 243.6 218.7C243.7 218.7 243.8 218.7 243.8 218.7C244.5 218.6 245 218 245 217.3C244.9 216.6 244.4 216.1 243.8 216.1Z" fill="#FF780B"/>
<path d="M228 218.2C227.3 218.2 226.7 218.8 226.7 219.5C226.7 220.2 227.3 220.8 228 220.8C228.7 220.8 229.3 220.2 229.3 219.5C229.3 218.7 228.7 218.2 228 218.2Z" fill="#FF780B"/>
<path d="M239.9 202.4C239.2 202.4 238.6 203 238.6 203.7C238.6 204.4 239.2 205 239.9 205C240.6 205 241.2 204.4 241.2 203.7C241.2 202.9 240.6 202.4 239.9 202.4Z" fill="#FF780B"/>
<path d="M300.4 254.4C310.948 254.4 319.5 245.849 319.5 235.3C319.5 224.752 310.948 216.2 300.4 216.2C289.851 216.2 281.3 224.752 281.3 235.3C281.3 245.849 289.851 254.4 300.4 254.4Z" fill="#EBFF99"/>
<path opacity="0.2" d="M300.4 254.4C310.948 254.4 319.5 245.849 319.5 235.3C319.5 224.752 310.948 216.2 300.4 216.2C289.851 216.2 281.3 224.752 281.3 235.3C281.3 245.849 289.851 254.4 300.4 254.4Z" fill="#383838"/>
<path d="M281.6 234.2C287.8 234.4 293.6 237 295.1 243.4C295.9 246.8 295.9 250.8 296.6 253.9C297.8 254.1 299.1 254.3 300.3 254.3H301.3C300.2 253 299.4 251.5 298.8 249.9C297.1 245.4 297 240.3 294.4 236.1C291.2 230.9 286.3 230.2 281.5 231.6C281.3 232.4 281.2 233.3 281.2 234.1L281.6 234.2Z" fill="#EBFF99"/>
<path d="M291 247.1C290.6 241.3 287.2 238.9 281.5 238.7C282.6 244.5 286.2 249.4 291.4 252.1C291.2 250.5 291.2 248.8 291 247.1Z" fill="#EBFF99"/>
<path d="M306.9 226.7C310.5 228.8 313.9 230.8 316.6 234.2C317.7 235.5 318.6 237 319.2 238.6C321.1 228.3 314.2 218.4 303.9 216.5C302 216.1 300 216.1 298 216.4C294.1 219.3 304.2 225.2 306.9 226.7Z" fill="#EBFF99"/>
<path d="M314.9 239.8C313.8 237.7 312.2 235.8 310.3 234.3C312.7 238.9 313.7 244 313.4 249.2C314.2 248.5 315 247.6 315.6 246.8C316.2 244.4 316 241.9 314.9 239.8Z" fill="#EBFF99"/>
<path d="M308.399 252C310.599 243.6 306.699 234 300.299 228.4C296.399 225.1 291.599 223 286.599 222.1C285.299 223.4 284.199 225 283.399 226.6C287.199 226 291.099 226.9 294.199 229.2C297.799 231.9 299.699 235.9 300.899 240.1C301.999 243.9 302.499 252 307.199 253.1C307.599 252.9 307.999 252.8 308.399 252.5C308.299 252.3 308.299 252.2 308.399 252Z" fill="#EBFF99"/>
<path d="M290.599 266.6C297.337 266.6 302.799 261.138 302.799 254.4C302.799 247.662 297.337 242.2 290.599 242.2C283.862 242.2 278.399 247.662 278.399 254.4C278.399 261.138 283.862 266.6 290.599 266.6Z" fill="#FF1710"/>
<path opacity="0.2" d="M284.299 244C278.499 247.4 276.7 254.9 280.1 260.6C283.3 265.9 289.9 268 295.6 265.4C287.8 260.5 282.099 252.2 284.299 244Z" fill="#383838"/>
<path d="M284.8 268.5C284.8 268.5 286.2 273.4 283.5 274.8C280.8 276.2 251 257.2 253 254.7C255 252.2 280.2 264.6 284.8 268.5Z" fill="#FF780B"/>
<path d="M267 268.2C267 268.2 268.4 273.1 265.7 274.5C263 275.9 233.2 256.9 235.1 254.4C237 251.9 262.4 264.3 267 268.2Z" fill="#FF780B"/>
<path d="M281 257.9C281 257.9 282.4 262.8 279.7 264.2C277 265.6 247.3 246.6 249.2 244C251.1 241.4 276.4 254 281 257.9Z" fill="#FF780B"/>
</svg>
