<svg width="500" height="500" viewBox="0 0 500 500" fill="none" xmlns="http://www.w3.org/2000/svg">
<path d="M243.1 415.1L20.1996 283.4C13.0996 279.4 6.99964 272.9 13.8996 268.6L237.7 139.6C241.1 137.5 246.1 136.2 249.6 138.1L483.6 274C490.7 278.1 492 289.6 484.9 293.8L272.5 414.9C263.4 420.2 252.3 420.3 243.1 415.1Z" fill="#FFDAAE"/>
<path d="M302.2 213.2V253.3H305.2L305.9 212.1" fill="#5C2D1D"/>
<path d="M319.099 197.7L325.099 241.4H322.099L315.899 199.4" fill="#5C2D1D"/>
<path d="M320.8 156.2C320 158.4 315.6 191.9 315.6 191.9L311.1 190.4L316.9 156" fill="#5C2D1D"/>
<path d="M308.4 189.4C308.4 189.4 320.4 194 319.2 198.5C318 203 308.4 214.1 302.3 213.2C296.2 212.3 288.7 206.9 288.7 206.9" fill="#2A343D"/>
<path d="M308.4 183.9C308.4 183.9 320.4 188.5 319.2 193C318 197.5 308.4 208.6 302.3 207.7C296.2 206.8 288.7 201.4 288.7 201.4" fill="#F8F5E6"/>
<path d="M313.1 141.8C313.1 141.8 324.7 144.7 325.9 151.4C327.1 158.1 327.4 170.4 311 165.6C294.6 160.8 302.3 148.5 302.3 148.5" fill="#F8F5E6"/>
<path d="M349.3 236.4V276.5H352.3L352.9 235.4" fill="#5C2D1D"/>
<path d="M366.2 221L372.1 264.6H369.2L363 222.6" fill="#5C2D1D"/>
<path d="M367.8 179.5C367 181.7 362.6 215.2 362.6 215.2L358.1 213.7L363.9 179.3" fill="#5C2D1D"/>
<path d="M355.4 212.6C355.4 212.6 367.4 217.2 366.2 221.7C365 226.2 355.4 237.3 349.3 236.4C343.2 235.5 335.7 230.1 335.7 230.1" fill="#2A343D"/>
<path d="M355.4 207.1C355.4 207.1 367.4 211.7 366.2 216.2C365 220.7 355.4 231.8 349.3 230.9C343.2 230 335.7 224.6 335.7 224.6" fill="#F8F5E6"/>
<path d="M360.2 165.1C360.2 165.1 371.8 168 373 174.7C374.2 181.4 374.5 193.7 358.1 188.9C341.7 184.1 349.4 171.8 349.4 171.8" fill="#F8F5E6"/>
<path d="M167.8 213.1V257H164.5L163.8 212" fill="#5C2D1D"/>
<path d="M149.3 196.3L142.8 244H146L152.8 198" fill="#5C2D1D"/>
<path d="M147.5 150.9C148.4 153.3 153.2 189.9 153.2 189.9L158.1 188.3L151.7 150.7" fill="#5C2D1D"/>
<path d="M161.1 187.1C161.1 187.1 148 192.1 149.3 197.1C150.6 202.1 161.1 214.2 167.8 213.1C174.5 212 182.7 206.2 182.7 206.2" fill="#2A343D"/>
<path d="M161.1 181.1C161.1 181.1 148 186.1 149.3 191.1C150.6 196.1 161.1 208.2 167.8 207.1C174.5 206 182.7 200.2 182.7 200.2" fill="#F8F5E6"/>
<path d="M155.9 135.1C155.9 135.1 143.2 138.3 141.9 145.5C140.6 152.7 140.3 166.2 158.2 161C176.1 155.8 167.7 142.3 167.7 142.3" fill="#F8F5E6"/>
<path d="M214.2 236.6C214.2 236.6 217.2 246.5 217.9 247.5C218.6 248.5 228.5 255.1 228.3 257.1C228.1 259.1 224.4 260 222.1 259.8C219.8 259.6 206.3 254 205.5 252.4C204.7 250.8 204.6 236.6 204.6 236.6H214.2Z" fill="#68E1FD"/>
<path d="M198.3 248.2C198.3 248.2 201.3 258.1 202 259.1C202.7 260.1 212.6 266.7 212.4 268.7C212.2 270.7 208.5 271.6 206.2 271.4C203.9 271.2 190.4 265.6 189.6 264C188.8 262.4 188.8 248.2 188.8 248.2H198.3Z" fill="#68E1FD"/>
<path d="M185.9 171.1C185.9 171.1 211.8 188.9 215.2 198C218.6 207.1 220.7 242.8 220.7 242.8C220.7 242.8 211.6 248.4 201.1 245.1L193.2 204.7C193.2 204.7 174.3 196.6 171.1 186.6C167.9 176.6 172.3 157.7 172.3 157.7" fill="#2A343D"/>
<path d="M157.6 168C157.6 168 153.1 186.8 156.5 196.9C159.9 207 178.7 215 178.7 215L186.6 255.4C197.1 258.7 206.2 253.1 206.2 253.1C206.2 253.1 204 217.4 200.7 208.3C197.4 199.2 171.4 181.4 171.4 181.4C171.4 181.4 176.1 171.9 172.4 167.9C168.7 163.9 157.6 168 157.6 168Z" fill="#2A343D"/>
<path d="M179.6 185.1C184.3 189.8 189.3 194.2 193.6 199.2C197.4 203.5 198.8 209 200.3 214.4C203.7 227 205.2 240.1 206.7 253C206.8 253.8 205.6 253.8 205.5 253C204.1 240.5 202.6 228 199.4 215.8C197.8 209.8 196.3 203.9 192 199.2C187.7 194.5 183.1 190.3 178.7 185.8C178.5 185.5 178.5 185.1 178.8 184.9C179.1 184.9 179.4 184.9 179.6 185.1Z" fill="#5C2D1D"/>
<path d="M289.499 367.9C291.799 349.5 291.499 289.2 291.499 289.2L284.399 282.9C284.399 282.9 284.699 348.5 286.699 367.8C287.699 368.1 288.599 368.1 289.499 367.9Z" fill="#5C2D1D"/>
<path d="M214.5 147.1C214.5 147.1 219.2 145.9 220.8 144.5C222.4 143.1 225.3 139.2 226.7 139.5C228.1 139.8 226.7 142.5 226.7 142.5C226.7 142.5 232.4 143 234 144.4C235.6 145.8 235.8 149.5 234 151.2C232.2 152.9 226.4 151.1 225.9 151.2C225.4 151.3 214.5 152.9 214.5 152.9" fill="#9D847B"/>
<path d="M192.5 142C191.6 141.5 190.7 140.9 189.9 140.2C186.6 137.6 183.3 133.8 179.6 131.1C179.7 131.9 179.7 132.6 179.8 133.3C180.1 135.7 180.3 138.1 180.6 140.6C181.1 144.9 181.6 149.2 182 153.5C182 153.7 182 154.4 182.1 154.6C188.3 162.6 217.5 156.3 217.5 156.3C218.8 152.7 219.2 148.7 218.6 144.9C213 145.1 197.5 145.3 192.5 142Z" fill="#68E1FD"/>
<path d="M219.9 223C219.9 223 218.1 233 221 234.1C223.9 235.2 235.8 244.5 234 248.2C229.9 256.7 205.6 238.2 205.6 238.2L208.6 217.1" fill="#2A343D"/>
<path d="M187.7 167.5L154.3 159.3C154.3 159.3 155.3 173.8 156.6 183.4C162.6 186.1 169.8 186 176.2 185.1C180.7 184.6 185.1 183.3 189.2 181.4C190.5 180.7 191.8 179.9 193 179C192.5 175.6 188.1 171 187.7 167.5Z" fill="#68E1FD"/>
<path d="M193 179.1L181.6 146.4C181 142.5 185.7 138.8 184.1 135C179.7 130.9 175 127 168.9 128C163.9 128.9 159.5 132.2 155.9 135.6C153.5 137.8 150.7 140.1 148.9 143C147.9 145.7 147.6 148.6 147.9 151.4C149.2 165 154.7 183.1 167.7 188.8C172.4 185.4 188.6 182.7 193 179.1Z" fill="#68E1FD"/>
<path d="M169.1 119.1C169.1 119.1 172.8 136.2 167.1 138.4C161.4 140.6 155.7 136.6 154.7 133.4C153.7 130.2 154.3 125.2 154.3 125.2C154.3 125.2 158.5 119.2 169.1 119.1Z" fill="#9D847B"/>
<path d="M169.6 116C169.8 111.8 164 109.2 161.3 112.7C159.9 111.5 158.1 111 156.4 111.3C153.9 111.7 153.1 113.5 153.3 115.8C151.9 115.8 150.5 116.4 149.6 117.6C148.6 119 148.6 120.9 149.6 122.3C147.8 123 146.7 124.9 147 126.8C147.1 127.7 147.4 128.5 147.9 129.2C147.8 129.5 147.7 129.7 147.7 130C147.5 131.6 148.2 133.2 149.6 134C150.4 134.5 151.3 134.8 152.2 134.8C152.8 136 154.1 136.7 155.4 136.7C157.3 136.6 158.7 135 158.7 133.1C158.7 132.8 158.6 132.4 158.5 132.1C159.3 130.4 159.4 128.4 158.9 126.6C159.2 126.5 159.4 126.4 159.6 126.3C160.3 125.8 160.7 125.1 160.9 124.3C161.7 124.6 162.5 124.7 163.3 124.5C164.1 124.3 164.7 123.8 165 123C167 123.5 169.8 122.8 170.9 120.9C171.8 119.2 171.3 117.1 169.6 116Z" fill="#EF7816"/>
<path d="M160 130.9C159.8 129.8 159.2 128.8 158.2 128.2C157.3 127.4 155.9 127.5 155.2 128.4C154.6 129.3 154.7 130.4 155.3 131.3C156.1 132.3 157.3 132.3 158.4 132.7C159 133 159.4 132.3 159.3 131.8C159.7 131.8 160 131.4 160 130.9Z" fill="#9D847B"/>
<path d="M167.899 126.6C167.799 126.2 167.199 126.4 167.299 126.8C167.499 127.7 167.699 128.6 167.799 129.5C167.899 129.9 167.999 130.3 167.999 130.7C167.999 131.4 167.599 131.6 167.099 131.9C166.999 132 166.899 132.2 166.999 132.3C167.099 132.4 167.299 132.5 167.399 132.4C168.099 132 168.699 131.8 168.699 130.8C168.499 129.4 168.299 128 167.899 126.6Z" fill="#5C2D1D"/>
<path d="M169.4 125.8C169.2 125.8 169.1 126 169.1 126.2C169.1 126.3 169.2 126.4 169.4 126.5C169.6 126.5 169.7 126.3 169.7 126.1C169.6 125.9 169.5 125.8 169.4 125.8Z" fill="#5C2D1D"/>
<path d="M163.3 127.9C163.1 127.9 163 128.1 163 128.3C163 128.4 163.1 128.5 163.3 128.6C163.5 128.6 163.6 128.4 163.6 128.2C163.5 128 163.4 127.9 163.3 127.9Z" fill="#5C2D1D"/>
<path d="M166.5 133.6C165.5 134 164.3 133.6 163.8 132.7C163.7 132.6 163.5 132.5 163.4 132.6C163.3 132.7 163.2 132.9 163.3 133C164 134.2 165.6 134.7 166.9 134.1C167.2 134 166.9 133.5 166.5 133.6Z" fill="#5C2D1D"/>
<path d="M292.5 262.1C292.5 259.8 292.6 257.4 292.6 255.1L282.3 257.1C282.3 257.1 282.8 261.1 281.7 262.5C280.6 263.9 272 268.1 271 269.4C270 270.7 269.7 273.2 275.7 273C281.7 272.8 286.5 268.6 287.8 268.3C289.1 268 291.8 267.6 292.7 267C292.7 265.4 292.5 263.8 292.5 262.1Z" fill="#2A343D"/>
<path d="M309.899 265.1C309.899 262.8 309.999 260.4 309.999 258.1L299.7 260.1C299.7 260.1 300.199 264.1 299.099 265.5C297.999 266.9 289.399 271.1 288.399 272.4C287.399 273.7 287.099 276.2 293.099 276C299.099 275.8 303.9 271.6 305.2 271.3C306.5 271 309.199 270.6 310.099 270C310.099 268.4 309.899 266.7 309.899 265.1Z" fill="#2A343D"/>
<path d="M305.2 165L300 166C300 165.3 300 164.7 300 164C298.9 163.9 297.799 163.8 296.799 163.7C293.799 163.3 291.3 160.3 288.4 159.1C287.2 165 286.8 177.9 285.4 187.2C283.6 199 278 254 279.6 258.5C279.6 258.5 279.5 260.1 289 260.7C289 260.7 291.3 262 294.6 257.3L298 198.8L296.5 261.6C299.4 264.2 303.7 265.5 311.6 261.5L315.4 182L305.2 165Z" fill="#2A343D"/>
<path d="M297.5 161.3C298.3 161.4 299.2 161.5 300 161.5C299.4 150.4 295.9 125.4 288.5 159.1C291.3 160.3 294.4 161.1 297.5 161.3Z" fill="#2A343D"/>
<path d="M317 161.1C316.9 160.5 316.8 159.9 316.6 159.4C315.5 154.4 314.4 146.2 312.6 141.4C311.2 137.7 307.5 136.4 303.4 135.8C299.2 135.1 294.9 134.7 290.7 134.7C290.5 134.7 290.4 134.7 290.2 134.6C287.4 135 284.9 136.5 283.2 138.7C279.3 143.7 278.7 146.5 275.1 151.7C271.9 156.3 268 160.5 263.6 164C267 165.2 269.3 168.6 270.2 172C270.7 173.9 269.6 173.4 269.2 175.3C274.8 169.2 286.4 159 286.4 159L286.7 170.4C292.1 175.1 300.6 174.3 305.3 173.3C310.5 170.6 314.5 166.3 317 161.1Z" fill="#68E1FD"/>
<path d="M290.1 134.6C290.1 134.6 288.7 143.2 296.6 143.2C304.5 143.2 304.8 136.2 304.8 136.2C300 134.9 295 134.4 290.1 134.6Z" fill="#F8F5E6"/>
<path d="M301.2 133.6C301.2 133.6 299 135.8 297 136C295.3 136.1 293.3 134 292.7 133.3C292.7 135.4 293 137.5 293.7 139.4C294 140 294.3 140.3 294.6 140.2C295.4 139.9 296.8 137.8 296.8 137.8C296.8 137.8 298.4 140.3 299.1 140.2C299.8 140.1 302 136.1 302 136.1L301.2 133.6Z" fill="#2A343D"/>
<path d="M306 119.2C305 117.9 303.3 117.5 301.8 118.2C301.8 118.1 301.7 118.1 301.7 118C300.8 117 300.4 116 299.1 115.7C297.8 115.4 296.5 115.4 295.3 115.8C294.1 116.1 293.1 116.8 292.5 117.9C292.4 117.8 292.3 117.8 292.2 117.8C289.4 117.9 287.3 120.2 287.3 123C287.4 125.3 289.2 127.9 291.6 128C292.7 128.4 294 128.6 295.2 128.5C296 128.4 296.6 127.7 296.5 126.9C296.5 126.6 296.4 126.4 296.2 126.2L296.4 126.1L296.5 126.2C296.9 126.7 297.6 126.8 298.1 126.4L298.3 126.3C298.6 126.2 298.9 126.1 299.2 126L299.5 126.1L299.4 126.4C299.2 127 299.5 127.6 300 127.9C300.3 128 300.5 128.1 300.8 128.1C300.2 129 299.3 129.8 298.4 130.3C297.1 131 297.8 132.7 299 132.8C298.4 133.2 298.6 135.9 299.3 135.5C302.7 133.6 305.2 130.4 306.1 126.6C306.5 124.8 307.2 120.7 306 119.2Z" fill="#2A343D"/>
<path d="M290.5 124.5C290.2 124.4 290.2 135.7 294.7 136.4C300.5 137.3 302.7 130.5 302.7 130.5C302.7 130.5 303.6 125.4 299.9 123.7C296.2 122 294.7 125.3 290.5 124.5Z" fill="#9D847B"/>
<path d="M290.5 124.5C290.5 124.5 295.1 125.3 297.5 124.5C299.9 123.7 296.4 131.5 298.2 131.5C300 131.5 299.9 127.3 301.3 128.9C302.7 130.5 299.2 135.4 299.2 135.4C299.2 135.4 304.1 132.9 305.2 128.7C306.3 124.5 300.9 120.4 295.7 120.8C290.5 121.2 290.5 124.5 290.5 124.5Z" fill="#2A343D"/>
<path d="M329.4 203.9L327.4 213.4C327.4 213.4 322.9 217.3 323.6 218.2C324.3 219.1 326.2 217.3 326.2 217.3C326.2 217.3 323.3 219.9 324.8 222.4C326.3 224.9 328.7 224.7 329.3 223.7C329.9 222.7 330.9 214.9 330.9 214.9L336.2 201.5" fill="#9D847B"/>
<path d="M329.399 203.9L336.299 201.5C336.299 201.5 338.399 188 339.399 183C340.999 175.2 339.099 172.1 339.099 172.1C339.099 172.1 342.699 164.9 339.799 164.3C336.899 163.7 332.599 175.5 332.099 181.5C331.599 187.5 329.399 203.9 329.399 203.9Z" fill="#9D847B"/>
<path d="M338.7 162.7C338.7 162.7 331.7 166.1 331 181.5C331 181.5 338.4 182.9 341.5 182.1" fill="#68E1FD"/>
<path d="M352 230.4C352 230.4 354.4 249.7 355.7 254.7C357 259.7 358.2 290.7 358.2 290.7C358.2 290.7 362.4 293.7 365.9 290.7C365.9 290.7 367.8 265.6 366.8 258.8C365.8 252 366.8 225.6 366.8 225.6" fill="#9D847B"/>
<path d="M338.4 224.8C338.4 224.8 337.9 239.1 338.4 243.8C338.9 248.5 340.9 278.3 340.9 278.3C340.9 278.3 344.4 281.3 347.8 278.3C347.8 278.3 350.1 263.6 349.8 260.8C349.5 258 349 222.4 349 222.4" fill="#9D847B"/>
<path d="M360.7 199.9C360.7 199.9 367.6 208.6 366.6 229.4C366.6 229.4 355.7 237 346.9 231.4L341.8 198" fill="#EA6453"/>
<path d="M338.5 195C338.5 195 334 219.3 334 227.8C334 232.8 347.4 231.8 351.9 230.4C356.4 229 349.7 193 349.7 193" fill="#EA6453"/>
<path d="M353 153.8C353 153.9 370.2 169.4 365 174.9C359.8 180.4 353 172.9 353 172.9L350.8 155.3" fill="#EF7816"/>
<path d="M352 301.7C351.3 303.2 351.6 305 352.8 306.2C354.8 308.3 357.4 307.3 359.6 306.2C361.8 305.1 368 299.6 367.1 298.2C366.2 296.8 365.9 290.7 365.9 290.7" fill="#F8F5E6"/>
<path d="M358.1 288.2C358.1 288.2 357.1 293.9 355.7 295.8C354.3 297.7 350.9 302.2 352 303.4C353.1 304.6 353.9 301 355.7 302C357.5 303 356.9 305.5 358.2 305C359.5 304.5 365.6 299.7 366.2 296.6C366.8 293.5 365.4 288.1 365.4 288.1" fill="#68E1FD"/>
<path d="M330.2 286.5C330.2 286.5 330 289.9 333.1 290.6C336.2 291.3 340 289.4 341.8 288.6C343.6 287.8 349.8 282.5 349.8 282.5L349 275" fill="#F8F5E6"/>
<path d="M340.6 274.5C340.6 274.5 338.7 279.1 335.4 280.8C332.1 282.5 329.5 285.9 330.2 286.5C330.9 287.1 332.6 284.9 333.4 285.5C334.2 286.1 334.3 288.8 335.3 288.1C336.3 287.4 338.6 289.2 341.7 287.1C344.8 285 343.8 284.1 346.4 283.1C349 282.1 349 274.9 349 274.9C349 274.9 342.5 276.5 340.6 274.5Z" fill="#68E1FD"/>
<path d="M361.5 168.2C360.1 163.3 352.1 161.5 343.1 161.7C341.6 161.7 340.1 162 338.6 162.6C335.5 167.2 336.2 173.4 336.6 178.6C337.1 184.5 337.2 194.9 337.7 198.8C345.8 203 358.5 200.2 360.7 199.8C360.7 199.9 362.9 173.1 361.5 168.2Z" fill="#68E1FD"/>
<path d="M346.6 208.7C346.6 208.2 345.8 208.2 345.8 208.7C346.2 216.2 346.6 223.8 347 231.3C347 231.8 347.8 231.8 347.8 231.3C347.5 223.8 347.1 216.2 346.6 208.7Z" fill="#5C2D1D"/>
<path d="M362.899 179.2L362.299 179C359.699 179.6 356.999 179.9 354.299 180.1C354.099 185.7 352.899 191 348.999 195.3C344.399 200.4 339.899 204 334.399 208.2L337.199 213.6C337.199 213.6 354.199 203.7 357.799 199.1C364.599 190.6 362.899 179.2 362.899 179.2Z" fill="#9D847B"/>
<path d="M339.4 212.4L335.2 215C335.2 215 332.6 220.8 330.9 220.8C329.2 220.8 327.2 219.2 326.5 218.3C325.8 217.4 327.5 213.5 327.5 213.5C327.5 213.5 325.5 213.6 325 212.5C324.5 211.4 331 211 331 211L336.8 206.8" fill="#9D847B"/>
<path d="M356.4 163.8C356.4 163.8 364.6 163.7 365.1 181.8L353.2 183L351.3 175.7" fill="#68E1FD"/>
<path d="M349.299 158L349.799 162.7C349.799 162.7 346.599 164.7 343.799 163.3L343.399 160.4" fill="#9D847B"/>
<path d="M342.4 156.6C335.1 157.4 335.7 151.6 335.7 151.6C334.5 139.3 347.7 141.7 347.7 141.7C347.7 141.7 357.6 144 351.5 156.3" fill="#EF7816"/>
<path d="M337 147.2C337 147.2 337.5 162.4 343.8 161.7C350.1 161 349.7 155.8 349.7 155.8C349.7 155.8 350.6 146.3 345.4 144.6C340.2 142.9 337 147.2 337 147.2Z" fill="#9D847B"/>
<path d="M337 147.2C337 147.2 340.6 152.6 345.1 152.2C349.6 151.8 349.3 158 349.3 158C349.3 158 353.6 156 353.5 150.2C353.5 146.9 348.8 141.4 344.5 141.7C340.2 142 336 144.2 337 147.2Z" fill="#EF7816"/>
<path d="M157 216.2L283.9 290.8C288.2 293.4 293.6 293.3 297.9 290.7L374.2 244.5C377.4 242.5 378.5 238.3 376.5 235.1C375.9 234.1 375.1 233.3 374.1 232.8L251.4 160.3C247.2 157.8 241.9 157.8 237.6 160.2L157.1 206.6C154.4 208.1 153.5 211.5 155.1 214.1C155.5 215 156.2 215.7 157 216.2Z" fill="#5C2D1D"/>
<path d="M157 210.3L283.9 285C288.2 287.6 293.6 287.5 297.9 284.9L374.2 238.7C377.4 236.7 378.5 232.5 376.5 229.3C375.9 228.3 375.1 227.5 374.1 227L251.4 154.5C247.2 152 241.9 152 237.6 154.4L157.1 200.8C154.4 202.3 153.5 205.7 155 208.3C155.5 209.2 156.2 209.9 157 210.3Z" fill="#EF7816"/>
<path d="M170.6 302C172.9 283.6 172.6 223.3 172.6 223.3L165.5 217C165.5 217 165.8 282.6 167.8 302C168.7 302.3 169.7 302.3 170.6 302Z" fill="#5C2D1D"/>
<path d="M222 131C222 131 218 119.2 217 118.5C216 117.8 214.5 119 215 119.7C215.5 120.4 220.4 132.8 220.4 132.8" fill="#2A343D"/>
<path d="M230.099 136H220.399V143.1H230.099V136Z" fill="#9D847B"/>
<path d="M225.6 157C229.189 157 232.1 155.299 232.1 153.2C232.1 151.101 229.189 149.4 225.6 149.4C222.01 149.4 219.1 151.101 219.1 153.2C219.1 155.299 222.01 157 225.6 157Z" fill="#F8F5E6"/>
<path d="M225.8 156.2C229.39 156.2 232.3 154.499 232.3 152.4C232.3 150.301 229.39 148.6 225.8 148.6C222.21 148.6 219.3 150.301 219.3 152.4C219.3 154.499 222.21 156.2 225.8 156.2Z" fill="#F8F5E6"/>
<path d="M224.3 146.2V151.2C225.1 151.8 226.2 151.8 227 151.2V146.2" fill="#F8F5E6"/>
<path d="M230.7 140.7C233.848 140.7 236.4 138.282 236.4 135.3C236.4 132.318 233.848 129.9 230.7 129.9C227.552 129.9 225 132.318 225 135.3C225 138.282 227.552 140.7 230.7 140.7Z" fill="#F8F5E6"/>
<path d="M220.7 141.2C223.848 141.2 226.4 138.782 226.4 135.8C226.4 132.818 223.848 130.4 220.7 130.4C217.552 130.4 215 132.818 215 135.8C215 138.782 217.552 141.2 220.7 141.2Z" fill="#EA6453"/>
<path d="M225.8 136.4C228.948 136.4 231.5 133.982 231.5 131C231.5 128.018 228.948 125.6 225.8 125.6C222.652 125.6 220.1 128.018 220.1 131C220.1 133.982 222.652 136.4 225.8 136.4Z" fill="#5C2D1D"/>
<path d="M215 136.3C215 136.3 217.5 141 225.9 141C234.3 141 236.1 136.3 236.1 136.3C236.1 136.3 235.7 146.6 226.1 146.6C216.5 146.6 215 139.2 215 136.3Z" fill="#F8F5E6"/>
<path d="M327.4 323.1L329 322.1V304.2L321.1 303.9C321.1 303.9 321 311.5 319.1 313.3C317.2 315.1 312.6 313.8 312.2 313.9C311.8 314 308.7 313.2 307.3 314.6C305.9 316 312 320.1 315.3 320.9C317.5 321.4 319.8 321.4 322 321.2C322 321.2 322.7 316.6 323.8 317.1C324.9 317.6 325 322.4 325 322.4L327.4 323.1Z" fill="#EA6453"/>
<path d="M315 274.3C315.3 290.3 315.9 312.2 316.9 312.5C328.3 315.8 332.9 310.3 332.9 310.3C332.9 310.3 333.8 290.3 334.5 272.6C328.1 271.2 321.3 272 315 274.3Z" fill="#2A343D"/>
<path d="M305.9 336.9L307.5 335.9V318L299.6 317.7C299.6 317.7 299.5 325.3 297.6 327.1C295.7 328.9 291.1 327.6 290.7 327.7C290.3 327.8 287.2 326.9 285.8 328.4C284.4 329.9 290.5 333.9 293.8 334.7C296 335.2 298.3 335.2 300.5 335C300.5 335 301.2 330.4 302.3 330.9C303.4 331.4 303.5 336.2 303.5 336.2L305.9 336.9Z" fill="#EA6453"/>
<path d="M302.1 272.1C300.5 274 299.5 276.3 299.1 278.8C298.8 280.3 298.6 281.7 298.4 283.2C297.8 286.7 297.3 290.2 296.7 293.7C295.6 300.6 294.4 307.6 293.3 314.5C292.9 316.9 292.5 319.3 292.1 321.7C292.1 321.7 301.9 325.3 310.6 322.5C310.6 322.5 321 278.8 321.4 277.9C321.5 277.7 322.1 275.6 322.8 272.4C323 271.7 321.4 270.6 320.9 270.3C319.6 269.4 318.3 268.8 316.8 268.4C312.8 267.3 308.5 267.8 304.9 269.8C303.9 270.4 302.9 271.2 302.1 272.1Z" fill="#2A343D"/>
<path d="M322.2 272.4C321.1 276.8 319.9 281.1 318.8 285.4C315.6 297.6 312.9 310 310.6 322.4L311.7 322.1C314.1 309.6 316.9 297.1 320.1 284.7C321.2 280.5 322.3 276.4 323.4 272.2L322.2 272.4Z" fill="#5C2D1D"/>
<path d="M328.899 289.9C333.299 286.9 338.399 285.2 343.999 286.4C349.899 287.7 354.999 291.4 361.099 292.3C362.099 292.4 365.899 292.2 366.399 292.8C383.199 308.7 336.299 307 336.299 307C331.699 303.3 327.499 299.6 322.899 295.8C324.299 292.8 326.599 291.6 328.899 289.9Z" fill="#5C2D1D"/>
<path d="M351 313C351.6 329 352.1 345 352.7 360.9C352.8 362.7 349.9 362.7 349.9 360.9C349.4 344.9 348.8 328.9 348.2 313C348.1 311.1 350.9 311.2 351 313Z" fill="#5C2D1D"/>
<path d="M315.8 338.6C324.3 330.2 332.5 321.5 340.3 312.4C341.5 311 343.5 313 342.3 314.4C334.5 323.5 326.4 332.2 317.8 340.6C316.5 341.9 314.5 339.9 315.8 338.6Z" fill="#5C2D1D"/>
<path d="M360.8 308.5C367.5 321 373.7 333.7 379.6 346.6C380.4 348.2 377.9 349.7 377.2 348C371.3 335.1 365.1 322.4 358.4 309.9C357.5 308.4 360 306.9 360.8 308.5Z" fill="#5C2D1D"/>
<path d="M323.7 294.4C326.5 298.3 330.5 301.1 335.1 302.6C341.5 304.5 350.9 303.6 354.2 297C360.3 285 354.6 269.9 361.1 258.2C362.6 255.2 365.4 253 368.6 252.1C372.8 251.2 375.7 254.3 377.2 258C379.9 264.6 379.8 272.7 379.7 279.7C379.7 285.3 379.3 291 378.5 296.6C378.5 296.6 374.6 320 344 313.7C338.7 312.7 333.6 310.9 329 308.2C326.6 306.9 324.5 305 322.9 302.9C320.8 300.3 322.1 297.1 323.7 294.4Z" fill="#68E1FD"/>
<path d="M357.5 279.5C357.5 279.5 341.2 270.4 334.7 268.3C328.2 266.2 322.4 272.2 322.4 272.2C315.7 268.9 308 270.7 303.4 272.6C302.7 274.2 302.2 275.8 301.7 277.5L316.5 294.3C316.5 294.3 336.3 306.9 348.2 302.2C360.1 297.5 357.5 279.5 357.5 279.5Z" fill="#2A343D"/>
<path d="M366.3 247.6L361.7 245.8C360.5 245.9 349.9 249.3 345.2 256.3C344.5 258.5 344 260.7 343.7 263C343.1 266 342.6 269 342.2 272.1C341.8 275.4 341.6 278.8 341.6 282.1C341.6 283.5 341.7 284.3 341.8 285.7C342.3 286.2 342.9 286.6 343.6 287C357.5 293 368.5 285.7 369 284.6C369.5 283.5 371.4 267.1 372.4 257.4C372.8 253.1 370.3 249.1 366.3 247.6Z" fill="#EA6453"/>
<path d="M355 229.8C355 229.8 350.6 245.6 356.4 247.8C362.2 250 369.6 243.8 370.4 240.5C371.2 237.2 363.7 225 355 229.8Z" fill="#9D847B"/>
<path d="M383.6 225C382 221.7 378.3 220.1 374.8 221.1C371.6 222.1 369.7 224.9 368.7 228C365.8 225.5 361.5 224.2 356.1 225.9C356.1 225.9 350.7 228.2 351.7 231.6C352.7 235 356.7 235 360.1 235.7C363.5 236.4 360.7 239.3 360.9 242.7C361.1 246.1 362.6 246.6 364 246.9C365.4 247.2 371.8 245.8 372.7 238.2C372.8 237.7 372.8 237.3 372.8 236.8C373.7 236.9 374.6 236.9 375.4 236.9C377.4 237 379.4 236.4 381.1 235.3C384.3 232.8 385.2 228.6 383.6 225Z" fill="#5C2D1D"/>
<path d="M349.4 247.1C349.8 246.5 350 245.7 349.9 245C349.8 244.4 349.2 244 348.6 244.1C348.3 244.2 348.1 244.3 347.9 244.5L347.4 245.2C347.3 244.3 347.2 243.4 347.1 242.6C347 242 346.4 241.6 345.8 241.7C345.3 241.8 344.9 242.2 344.9 242.7C344.9 243 344.8 243.3 344.8 243.5C344.7 243.8 344.6 244.1 344.6 244.4C343.4 244.5 341.9 245 341.7 246.4V246.5C340.7 246.6 339.8 246.9 339.8 248C339.8 248.2 339.8 248.4 339.8 248.6C338.8 248.9 338.1 249.4 338.3 250.6C338.5 252.1 338.9 253.5 339.4 254.9C339.6 255.2 339.9 255.5 340.3 255.5C340.4 256.1 340.6 256.7 340.8 257.3C341.2 258.1 342.2 258.5 343.1 258.1C343.3 258 343.5 257.8 343.7 257.6C343.8 257.6 343.9 257.6 344.1 257.5C344.4 257.7 344.7 257.7 345 257.7C345.9 258 346.8 257.5 347 256.6C347 256.5 347.1 256.3 347.1 256.2C347.1 255.9 347.1 255.7 347.1 255.4C347.8 252.7 348.6 249.9 349.4 247.1Z" fill="#9D847B"/>
<path d="M347.5 252.9C347.1 253 342.1 248.3 338.2 249.9C338.2 249.9 323.5 274.7 337.2 281.2C344 284.5 349.2 274.4 349.2 274.4L345.3 266.7L347.5 252.9Z" fill="#EA6453"/>
<path d="M346.2 253.9C343 259.2 340.8 265 339.7 271C339.6 271.7 340.7 272 340.8 271.3C341.9 265.3 344 259.6 347.2 254.4C347.6 253.9 346.6 253.3 346.2 253.9Z" fill="#9D847B"/>
<path d="M349 275.5C347.9 277.7 346.4 280 344.2 281.2C341.5 282.5 338.2 282 336 279.9C331.2 275.8 331.9 268.6 332.9 263C333 262.3 331.9 262 331.8 262.7C330.7 269 330.1 277.1 336 281.3C338.3 283 341.3 283.4 344 282.5C346.8 281.4 348.6 278.7 350 276.1C350.3 275.4 349.3 274.8 349 275.5Z" fill="#9D847B"/>
<path d="M323.7 294.4C326.5 298.3 330.5 301.1 335.1 302.6C341.5 304.5 350.9 303.6 354.2 297C360.3 285 354.6 269.9 361.1 258.2C362.6 255.2 365.4 253 368.6 252.1C372.8 251.2 375.7 254.3 377.2 258C379.9 264.6 379.8 272.7 379.7 279.7C379.7 285.3 379.3 291 378.5 296.6C378.5 296.6 374.6 320 344 313.7C338.7 312.7 333.6 310.9 329 308.2C326.6 306.9 324.5 305 322.9 302.9C320.8 300.3 322.1 297.1 323.7 294.4Z" fill="#68E1FD"/>
<path d="M297.9 284.9L326 267.9L313 262.7L299.1 268.6L295.3 281.1L297.9 284.9Z" fill="#EF7816"/>
<path d="M296.5 291.5L331.5 270.6V264.6L297.9 284.9L296.5 291.5Z" fill="#5C2D1D"/>
<path d="M291.4 323.1L291.1 338.1C291.1 338.1 286.4 335.6 286.3 335.1C286.2 334.6 285 322.4 285 322.4L291.4 323.1Z" fill="#5C2D1D"/>
<path d="M179.9 184.5L187.5 189.1C187.5 189.1 192.3 188.7 192.5 189.9C192.7 191.1 186.9 191.2 186.9 191.2C186.9 191.2 186.7 197.4 187.3 198.9C187.9 200.4 190 204.9 190 204.9C190 204.9 189.6 205.4 188.7 204.9C188.7 204.9 188.5 206 187.6 206.1C187.8 206.6 187.6 207.1 187.2 207.4C186.5 207.9 183.3 203.8 182.6 202.3C181.9 200.8 181.3 194.3 181.3 194.3L175.8 189.2L179.9 184.5Z" fill="#9D847B"/>
<path d="M167.8 188.8L173.7 194.1L184 185.3L172.6 175.8" fill="#68E1FD"/>
<path d="M266.4 172.5C266.4 172.5 264 179.3 263.2 178.5C262.7 178 262.4 177.2 262.5 176.5C262.5 176.5 257.7 181.4 256.3 181.4C254.9 181.4 252.2 180.5 252.1 179.8C252 179.1 252.3 176.4 253 175.6C253.7 174.8 264.8 168.3 264.8 168.3" fill="#9D847B"/>
<path d="M265.2 162.6L259 168.7L267.7 174.8L286.5 159L265.2 162.6Z" fill="#68E1FD"/>
<path d="M295.1 181.4C294.6 181.9 288.7 186 288.6 185.9C288.5 185.8 284.3 187.5 285.5 188.3C286.7 189.1 289.1 188.3 289.1 188.3C289.1 188.3 284.7 193 285.3 194.1C285.9 195.5 286.7 196.8 287.5 198C288.4 198.8 294 195.1 295 194.1C296 193.1 299.2 184.3 299.2 184.3" fill="#9D847B"/>
<path d="M315.5 154.9C316.9 159.6 317.4 164.6 317 169.5C316.3 178.2 299.8 190.2 299.8 190.2L292.1 181.8C292.1 181.8 302.3 173.2 303 169.2" fill="#68E1FD"/>
<path d="M330 199.3L327.8 212.9C327.8 212.9 323.3 216.8 324 217.7C324.7 218.6 326.6 216.8 326.6 216.8C326.6 216.8 323.7 219.4 325.2 221.8C326.7 224.2 329.1 224.1 329.7 223.1C330.3 222.1 331.3 214.3 331.3 214.3L336.6 200.9" fill="#9D847B"/>
<path d="M345.9 208.3L335.5 214.4C335.5 214.4 332.9 220.2 331.2 220.2C329.5 220.2 327.5 218.6 326.8 217.7C326.1 216.8 327.8 212.9 327.8 212.9C327.8 212.9 325.8 213 325.3 211.9C324.8 210.8 331.3 210.4 331.3 210.4L339.8 204.2" fill="#9D847B"/>
<path opacity="0.58" d="M181.099 182.9C181.099 182.9 169.199 171.5 166.999 162.4L163.899 151.7C163.899 151.7 171.899 166.8 174.899 171.2C177.899 175.6 183.999 185.3 183.999 185.3L181.099 182.9Z" fill="#2A343D"/>
<path d="M209.6 214.1C224.457 214.1 236.5 207.429 236.5 199.2C236.5 190.971 224.457 184.3 209.6 184.3C194.744 184.3 182.7 190.971 182.7 199.2C182.7 207.429 194.744 214.1 209.6 214.1Z" fill="#68E1FD"/>
<path opacity="0.29" d="M209.6 214.1C224.457 214.1 236.5 207.429 236.5 199.2C236.5 190.971 224.457 184.3 209.6 184.3C194.744 184.3 182.7 190.971 182.7 199.2C182.7 207.429 194.744 214.1 209.6 214.1Z" fill="#2A343D"/>
<path d="M209.6 212.5C224.457 212.5 236.5 205.829 236.5 197.6C236.5 189.371 224.457 182.7 209.6 182.7C194.744 182.7 182.7 189.371 182.7 197.6C182.7 205.829 194.744 212.5 209.6 212.5Z" fill="#68E1FD"/>
<path opacity="0.29" d="M208.8 207.9C217.692 207.9 224.9 204.049 224.9 199.3C224.9 194.55 217.692 190.7 208.8 190.7C199.908 190.7 192.7 194.55 192.7 199.3C192.7 204.049 199.908 207.9 208.8 207.9Z" fill="#2A343D"/>
<path d="M209.6 204.9C219.044 204.9 226.7 199.662 226.7 193.2C226.7 186.738 219.044 181.5 209.6 181.5C200.156 181.5 192.5 186.738 192.5 193.2C192.5 199.662 200.156 204.9 209.6 204.9Z" fill="#EA6453"/>
<path d="M192.899 191.4C192.899 192.4 192.899 193.8 193.999 194.2C194.699 194.3 195.299 194.3 195.999 194.1C197.199 193.8 198.399 193.8 199.599 194C201.999 194.9 202.299 201.8 205.899 198.9C206.899 198.1 207.299 196.8 208.399 196.3C209.599 195.9 210.899 196.3 211.699 197.3C212.199 197.9 212.699 198.5 213.299 199.1C214.599 200 215.899 199.1 216.499 197.9C217.099 196.7 217.399 195.3 218.999 194.9C221.099 194.4 223.199 196.5 225.099 194.8C225.999 194 226.499 192.9 226.699 191.7C225.699 185.9 218.499 181.4 209.799 181.4C201.299 181.4 194.299 185.6 192.999 191.2C192.899 191.2 192.899 191.3 192.899 191.4Z" fill="#F8F5E6"/>
<path d="M209.6 195.1C213.189 195.1 216.1 193.309 216.1 191.1C216.1 188.891 213.189 187.1 209.6 187.1C206.01 187.1 203.1 188.891 203.1 191.1C203.1 193.309 206.01 195.1 209.6 195.1Z" fill="#EA6453"/>
<path opacity="0.29" d="M204 193.1C207.5 191.1 211.9 191 215.5 192.8C215.5 192.8 214 195.2 209.6 195C205.2 194.8 204 193.1 204 193.1Z" fill="#2A343D"/>
<path d="M199.8 187.4C199.6 187.2 199.2 187.2 199 187.4L198.2 188.2C198 188.4 198 188.8 198.2 189C198.4 189.2 198.8 189.2 199 189L199.8 188.2C200 188 200 187.6 199.8 187.4Z" fill="#EA6453"/>
<path d="M205.199 184.4L204.599 183.8C204.399 183.6 203.999 183.6 203.799 183.8C203.599 184 203.599 184.4 203.799 184.6L204.399 185.2C204.599 185.4 204.999 185.4 205.199 185.2C205.399 185 205.399 184.6 205.199 184.4Z" fill="#EA6453"/>
<path d="M217.699 184.5C217.499 184.3 217.099 184.3 216.899 184.5L216.299 185.1C216.099 185.3 216.099 185.7 216.299 185.9C216.499 186.1 216.899 186.1 217.099 185.9L217.699 185.3C217.899 185.1 217.899 184.8 217.699 184.5Z" fill="#EA6453"/>
<path d="M213 183.5L212.5 183C212.3 182.8 211.9 182.8 211.7 183C211.5 183.2 211.5 183.6 211.7 183.8L212.2 184.3C212.4 184.5 212.8 184.5 213 184.3C213.2 184.1 213.2 183.8 213 183.5Z" fill="#EA6453"/>
<path d="M222.2 190.2H221.3C221 190.2 220.7 190.5 220.7 190.8C220.7 191.1 221 191.4 221.3 191.4H222.2C222.5 191.4 222.8 191.1 222.8 190.8C222.8 190.4 222.5 190.2 222.2 190.2Z" fill="#EA6453"/>
<path d="M214.8 195.8L214.4 195.5C214.2 195.3 213.8 195.3 213.6 195.5C213.4 195.7 213.4 196.1 213.6 196.3L214 196.6C214.2 196.8 214.6 196.8 214.8 196.6C215.1 196.4 215.1 196 214.8 195.8Z" fill="#EA6453"/>
<path d="M204.9 195C204.6 194.8 204.3 194.9 204.1 195.2C204.1 195.1 204 195.3 204 195.3L203.9 195.4C203.6 195.6 203.5 195.9 203.7 196.2C203.9 196.5 204.2 196.6 204.5 196.4C204.7 196.2 204.9 196.1 205.1 195.8C205.2 195.5 205.1 195.2 204.9 195Z" fill="#EA6453"/>
<path d="M197.2 191.5H196.3C196 191.5 195.7 191.8 195.7 192.1C195.7 192.4 196 192.7 196.3 192.7H197.2C197.5 192.7 197.8 192.4 197.8 192.1C197.8 191.7 197.5 191.5 197.2 191.5Z" fill="#EA6453"/>
<path d="M220.1 186.8C219.8 186.8 219.5 187.1 219.5 187.4C219.5 187.7 219.8 188 220.1 188C220.4 188 220.7 187.7 220.7 187.4C220.7 187 220.5 186.8 220.1 186.8Z" fill="#99CE45"/>
<path d="M209.6 184.1C209.3 184.1 209.1 184.4 209.1 184.8C209.1 185.1 209.3 185.3 209.6 185.3C209.9 185.3 210.1 185 210.1 184.6C210.1 184.4 209.9 184.2 209.6 184.1Z" fill="#99CE45"/>
<path d="M204.4 186.9C204.1 186.9 203.8 187.2 203.8 187.5C203.8 187.8 204.1 188.1 204.4 188.1C204.7 188.1 205 187.8 205 187.5C205 187.2 204.8 186.9 204.4 186.9Z" fill="#99CE45"/>
<path d="M200.8 184.2C200.5 184.2 200.3 184.5 200.3 184.9C200.3 185.2 200.5 185.4 200.8 185.4C201.1 185.4 201.3 185.1 201.3 184.7C201.3 184.5 201.1 184.3 200.8 184.2Z" fill="#99CE45"/>
<path d="M196.5 188.2C196.2 188.2 196 188.5 196 188.9C196 189.2 196.2 189.4 196.5 189.4C196.8 189.4 197 189.1 197 188.7C197 188.4 196.8 188.2 196.5 188.2Z" fill="#99CE45"/>
<path d="M200.899 190.1C200.599 190.1 200.399 190.4 200.399 190.8C200.399 191.1 200.599 191.3 200.899 191.3C201.199 191.3 201.399 191 201.399 190.6C201.399 190.4 201.199 190.2 200.899 190.1Z" fill="#99CE45"/>
<path d="M217.999 190.8C217.699 190.8 217.399 191.1 217.399 191.4C217.399 191.7 217.699 192 217.999 192C218.299 192 218.599 191.7 218.599 191.4C218.599 191 218.299 190.8 217.999 190.8Z" fill="#99CE45"/>
<path d="M222.8 192.1C222.5 192.1 222.2 192.4 222.2 192.7C222.2 193 222.5 193.3 222.8 193.3C223.1 193.3 223.4 193 223.4 192.7C223.4 192.3 223.1 192.1 222.8 192.1Z" fill="#99CE45"/>
<path d="M217.1 187.1C216.8 187.1 216.5 187.4 216.5 187.7C216.5 188 216.8 188.3 217.1 188.3C217.4 188.3 217.7 188 217.7 187.7C217.7 187.3 217.5 187.1 217.1 187.1Z" fill="#99CE45"/>
<path d="M288 263.9C305.617 263.9 319.9 256.558 319.9 247.5C319.9 238.443 305.617 231.1 288 231.1C270.382 231.1 256.1 238.443 256.1 247.5C256.1 256.558 270.382 263.9 288 263.9Z" fill="#68E1FD"/>
<path opacity="0.29" d="M288 263.9C305.617 263.9 319.9 256.558 319.9 247.5C319.9 238.443 305.617 231.1 288 231.1C270.382 231.1 256.1 238.443 256.1 247.5C256.1 256.558 270.382 263.9 288 263.9Z" fill="#2A343D"/>
<path d="M288 262C305.617 262 319.9 254.657 319.9 245.6C319.9 236.542 305.617 229.2 288 229.2C270.382 229.2 256.1 236.542 256.1 245.6C256.1 254.657 270.382 262 288 262Z" fill="#68E1FD"/>
<path opacity="0.29" d="M288.499 255.8C300.429 255.8 310.099 251.233 310.099 245.6C310.099 239.967 300.429 235.4 288.499 235.4C276.57 235.4 266.899 239.967 266.899 245.6C266.899 251.233 276.57 255.8 288.499 255.8Z" fill="#2A343D"/>
<path d="M280.4 243.4L281.4 243.6L281.1 241.5C279.7 241.2 278.4 240.8 277.1 240.3C274.1 239.4 271.2 238.3 268.5 236.8C267.9 236.5 267.3 236.2 266.7 235.8C264.2 235.2 262 232.6 262.5 235.7C262.8 237.1 263.4 238.5 264.4 239.6C266.7 240.3 269 240.9 271.3 241.4C274.3 242 277.4 242.7 280.4 243.4Z" fill="#99CE45"/>
<path d="M281.6 245.5L281.5 244.5L280.4 244.2L263.5 241.1C261.7 241.7 258.5 241.3 260.1 243.1C261.5 244.6 263.7 244.3 264.3 244.9C265.9 245.1 267.4 245.2 269 245.3C273.3 245.2 277.5 245.3 281.6 245.5Z" fill="#99CE45"/>
<path d="M281.2 247.3L281.9 247.2L281.8 246.3C281.7 246.4 281.6 246.5 281.5 246.5L263.7 246.9C262.3 248.2 260.7 248.3 263.3 248.8C265.1 249.2 266.3 249.1 266.8 249.5L280.9 247.1C281 247.2 281.1 247.2 281.2 247.3Z" fill="#99CE45"/>
<path d="M281 240.4V240C280.9 240.1 280.7 240.2 280.5 240.1C280.5 240.1 280.5 240.1 280.4 240C278.4 237.6 275.7 235.7 274 233C273.8 233 273.5 232.9 273.3 232.8C270.8 231.8 270 230.7 268.9 232.4C268.2 233.5 269 234.8 268.8 235.5C272.5 237.4 276.3 239 280.3 240.2L281 240.4Z" fill="#99CE45"/>
<path d="M280.7 237.9C280.7 237.9 280.2 231.3 277.2 231C275.7 230.9 275.3 231.5 275.1 232.1C277 234.5 279 236.8 280.9 239.2L280.7 237.9Z" fill="#99CE45"/>
<path d="M281.8 248.7L282 248.6V248.4L281.8 248.7Z" fill="#99CE45"/>
<path d="M281.1 248.1C280.8 248.1 280.5 248.2 280.2 248.2C275.5 249.4 270.9 251.2 266.7 253.5C266.8 254 267.3 254.1 268.4 254C270.3 253.7 272.6 251.2 273.3 252.7C274.6 251.8 276.1 251.2 277.5 250.4C278.9 249.6 279.9 248.9 281.1 248.1Z" fill="#99CE45"/>
<path d="M267 252C266.9 252 266.8 252 266.7 252C266.7 252.1 266.7 252.2 266.6 252.3C266.8 252.2 267 252 267.2 251.9L267 252Z" fill="#99CE45"/>
<path d="M280.4 240C280.5 240.1 280.7 240.2 280.9 240.1C280.9 240.1 280.9 240.1 281 240L280.9 239.3C278.9 236.9 277 234.6 275.1 232.2C274.9 232.7 274.7 233.1 274.1 233C275.7 235.6 278.4 237.6 280.4 240Z" fill="#99CE45"/>
<path d="M277.1 240.3C278.4 240.8 279.7 241.2 281.1 241.5L281 240.4L280.3 240.3C276.3 239.1 272.5 237.5 268.8 235.6C268.7 235.9 268.3 236.1 267.4 236C267.2 236 266.9 235.9 266.7 235.9C267.3 236.3 267.9 236.6 268.5 236.9C271.2 238.3 274.1 239.4 277.1 240.3Z" fill="#99CE45"/>
<path d="M281.5 244.5L281.4 243.6L280.4 243.4C277.4 242.7 274.3 242 271.3 241.4C269 240.8 266.7 240.2 264.4 239.6C264.8 240.1 264.9 240.5 264.3 240.9C264.1 241.1 263.8 241.2 263.5 241.2L280.4 244.3L281.5 244.5Z" fill="#99CE45"/>
<path d="M281.7 246.3L281.6 245.5C277.4 245.3 273.2 245.2 269.1 245.4C267.5 245.3 266 245.2 264.4 245C264.6 245.2 264.6 245.6 264.3 246.1C264.1 246.4 263.9 246.7 263.6 246.9L281.4 246.5C281.5 246.5 281.7 246.5 281.7 246.3Z" fill="#99CE45"/>
<path d="M282 248.9V248.7L281.8 248.8L281.7 248.7L282 248.5L281.8 247.3L281.1 247.4C281 247.3 280.9 247.3 280.7 247.3L266.5 249.7C266.9 250 266.9 250.5 266.7 251.4C266.6 251.7 266.6 251.9 266.6 252.1C266.7 252.1 266.8 252.1 266.9 252.1L267.2 252C267 252.1 266.8 252.3 266.6 252.4C266.5 252.8 266.5 253.2 266.5 253.6C270.8 251.3 275.3 249.5 280 248.3C280.3 248.3 280.6 248.2 280.9 248.2C279.7 249 278.5 249.8 277.2 250.5C275.9 251.2 274.3 251.9 273 252.8V252.9C273.8 254.4 282 248.9 282 248.9Z" fill="#99CE45"/>
<path opacity="0.29" d="M280.4 240C280.5 240.1 280.7 240.2 280.9 240.1C280.9 240.1 280.9 240.1 281 240L280.9 239.3C278.9 236.9 277 234.6 275.1 232.2C274.9 232.7 274.7 233.1 274.1 233C275.7 235.6 278.4 237.6 280.4 240Z" fill="#2A343D"/>
<path opacity="0.29" d="M277.1 240.3C278.4 240.8 279.7 241.2 281.1 241.5L281 240.4L280.3 240.3C276.3 239.1 272.5 237.5 268.8 235.6C268.7 235.9 268.3 236.1 267.4 236C267.2 236 266.9 235.9 266.7 235.9C267.3 236.3 267.9 236.6 268.5 236.9C271.2 238.3 274.1 239.4 277.1 240.3Z" fill="#2A343D"/>
<path opacity="0.29" d="M281.5 244.5L281.4 243.6L280.4 243.4C277.4 242.7 274.3 242 271.3 241.4C269 240.8 266.7 240.2 264.4 239.6C264.8 240.1 264.9 240.5 264.3 240.9C264.1 241.1 263.8 241.2 263.5 241.2L280.4 244.3L281.5 244.5Z" fill="#2A343D"/>
<path opacity="0.29" d="M281.7 246.3L281.6 245.5C277.4 245.3 273.2 245.2 269.1 245.4C267.5 245.3 266 245.2 264.4 245C264.6 245.2 264.6 245.6 264.3 246.1C264.1 246.4 263.9 246.7 263.6 246.9L281.4 246.5C281.5 246.5 281.7 246.5 281.7 246.3Z" fill="#2A343D"/>
<path opacity="0.29" d="M282 248.9V248.7L281.8 248.8L281.7 248.7L282 248.5L281.8 247.3L281.1 247.4C281 247.3 280.9 247.3 280.7 247.3L266.5 249.7C266.9 250 266.9 250.5 266.7 251.4C266.6 251.7 266.6 251.9 266.6 252.1C266.7 252.1 266.8 252.1 266.9 252.1L267.2 252C267 252.1 266.8 252.3 266.6 252.4C266.5 252.8 266.5 253.2 266.5 253.6C270.8 251.3 275.3 249.5 280 248.3C280.3 248.3 280.6 248.2 280.9 248.2C279.7 249 278.5 249.8 277.2 250.5C275.9 251.2 274.3 251.9 273 252.8V252.9C273.8 254.4 282 248.9 282 248.9Z" fill="#2A343D"/>
<path d="M308.5 243.8C308.7 243.6 308.9 243.4 309.1 243.3C310.3 242.2 310.3 240.3 309.2 239.1C309.1 239 309 238.9 309 238.9C307.7 237.7 306.2 237.8 304.4 237.6H304.2C304.1 237.2 304.1 236.7 304 236.5C303.6 235.7 303.1 235.1 302.4 234.7C300.8 233.8 298.8 233.5 297 234C296.3 234.1 295.1 234.9 294.4 234.6C293.7 234.3 292.9 233 292.3 232.5C289.2 230.6 285.1 231.4 283 234.4C282.5 235.2 282.2 236.1 282.1 237C281.9 238.2 281.4 238.3 280.1 238.8C278.2 239.6 276.8 240.9 276.8 242.8C276.8 245.2 278.3 246.6 280.3 247.5L280.9 247.8C281.6 248.8 282.5 249.8 283.5 250.5C285.8 252.1 288.6 252.4 291.5 252.7C296 253.1 303.2 254.1 306.5 250.6C309.5 249.5 311.7 246.5 308.8 244.1L308.5 243.8Z" fill="#F8F5E6"/>
<path d="M293.9 245.7C298.484 245.7 302.2 243.73 302.2 241.3C302.2 238.87 298.484 236.9 293.9 236.9C289.316 236.9 285.6 238.87 285.6 241.3C285.6 243.73 289.316 245.7 293.9 245.7Z" fill="#EF7816"/>
<path d="M296.5 238.2C295.8 238.3 295.3 238.9 295.3 239.6C295.4 240.2 295.8 240.7 296.5 240.8C297.2 240.7 297.7 240.1 297.7 239.4C297.6 238.7 297.1 238.2 296.5 238.2Z" fill="#F8F5E6"/>
<path opacity="0.29" d="M293.6 244.5C290.6 244.3 286.5 242.8 286.1 239.8C285.8 240.2 285.6 240.8 285.6 241.3C285.6 243.7 289.3 245.6 293.9 245.6C297.7 245.6 300.8 244.3 301.9 242.5C299.7 244.3 296.5 244.7 293.6 244.5Z" fill="#2A343D"/>
<path d="M282.9 254.2C286.987 254.2 290.3 252.678 290.3 250.8C290.3 248.922 286.987 247.4 282.9 247.4C278.813 247.4 275.5 248.922 275.5 250.8C275.5 252.678 278.813 254.2 282.9 254.2Z" fill="#EA6453"/>
<path opacity="0.29" d="M282.9 254.2C286.987 254.2 290.3 252.678 290.3 250.8C290.3 248.922 286.987 247.4 282.9 247.4C278.813 247.4 275.5 248.922 275.5 250.8C275.5 252.678 278.813 254.2 282.9 254.2Z" fill="#2A343D"/>
<path d="M282.9 253.2C286.987 253.2 290.3 251.678 290.3 249.8C290.3 247.922 286.987 246.4 282.9 246.4C278.813 246.4 275.5 247.922 275.5 249.8C275.5 251.678 278.813 253.2 282.9 253.2Z" fill="#EA6453"/>
<path opacity="0.29" d="M277.8 250.1C279.5 251.5 281.6 252.2 283.7 252C285.9 252.1 287.9 250.9 288.8 249L277.8 250.1Z" fill="#2A343D"/>
<path opacity="0.29" d="M277.3 249.6L288.3 248.4C286.2 247.8 284 247.5 281.8 247.5C280 247.6 278.4 248.3 277.3 249.6Z" fill="#2A343D"/>
<path d="M278.2 250.1C278.1 250.1 278 250.2 278 250.4C278 250.5 278.1 250.5 278.2 250.6C278.3 250.6 278.4 250.5 278.4 250.3C278.4 250.1 278.3 250.1 278.2 250.1Z" fill="#F8F5E6"/>
<path d="M281.2 251.4C281.1 251.4 281 251.5 281 251.6C281 251.7 281.1 251.8 281.2 251.8C281.3 251.8 281.4 251.7 281.4 251.6C281.4 251.5 281.3 251.5 281.2 251.4Z" fill="#F8F5E6"/>
<path d="M283.2 251.4C283.1 251.4 283 251.5 283 251.7C283 251.8 283.1 251.8 283.2 251.9C283.3 251.9 283.4 251.8 283.4 251.6C283.4 251.4 283.3 251.4 283.2 251.4Z" fill="#F8F5E6"/>
<path d="M281.5 250C281.4 250 281.3 250.1 281.3 250.2C281.3 250.3 281.4 250.4 281.5 250.4C281.6 250.4 281.7 250.3 281.7 250.2C281.7 250.1 281.6 250 281.5 250Z" fill="#F8F5E6"/>
<path d="M279.5 248.7C279.4 248.7 279.3 248.8 279.3 248.9C279.3 249 279.4 249.1 279.5 249.1C279.6 249.1 279.7 249 279.7 248.9C279.7 248.7 279.6 248.7 279.5 248.7Z" fill="#F8F5E6"/>
<path d="M281.9 247.5C281.8 247.5 281.7 247.6 281.7 247.7C281.7 247.8 281.8 247.9 281.9 247.9C282 247.9 282.1 247.8 282.1 247.7C282.1 247.6 282 247.5 281.9 247.5Z" fill="#F8F5E6"/>
<path d="M281.599 248C281.499 248 281.399 248.1 281.399 248.2C281.399 248.3 281.499 248.4 281.599 248.4C281.699 248.4 281.799 248.3 281.799 248.2C281.799 248.1 281.699 248 281.599 248Z" fill="#F8F5E6"/>
<path d="M279.4 247.7C279.3 247.7 279.2 247.8 279.2 247.9C279.2 248 279.3 248.1 279.4 248.1C279.5 248.1 279.6 248 279.6 247.9C279.6 247.8 279.5 247.7 279.4 247.7Z" fill="#F8F5E6"/>
<path d="M277.2 249.2C277.1 249.2 277 249.3 277 249.4C277 249.5 277.1 249.6 277.2 249.6C277.3 249.6 277.4 249.5 277.4 249.4C277.4 249.3 277.3 249.2 277.2 249.2Z" fill="#F8F5E6"/>
<path d="M285.2 251.4C285.1 251.4 285 251.5 285 251.6C285 251.7 285.1 251.8 285.2 251.8C285.3 251.8 285.4 251.7 285.4 251.6C285.4 251.5 285.3 251.4 285.2 251.4Z" fill="#F8F5E6"/>
<path d="M286.9 249.8C286.8 249.8 286.7 249.9 286.7 250C286.7 250.1 286.8 250.2 286.9 250.2C287 250.2 287.1 250.1 287.1 250C287.1 249.9 287 249.8 286.9 249.8Z" fill="#F8F5E6"/>
<path d="M284 250.3C283.9 250.3 283.8 250.4 283.8 250.6C283.8 250.7 283.9 250.7 284 250.8C284.1 250.8 284.2 250.7 284.2 250.5C284.1 250.4 284.1 250.3 284 250.3Z" fill="#F8F5E6"/>
<path d="M284.7 247.9C284.6 247.9 284.5 248 284.5 248.1C284.5 248.2 284.6 248.3 284.7 248.3C284.8 248.3 284.9 248.2 284.9 248.1C284.9 248 284.8 247.9 284.7 247.9Z" fill="#F8F5E6"/>
<path d="M286.9 248.4C286.8 248.4 286.7 248.5 286.7 248.6C286.7 248.7 286.8 248.8 286.9 248.8C287 248.8 287.1 248.7 287.1 248.6C287.1 248.5 287 248.4 286.9 248.4Z" fill="#F8F5E6"/>
<path d="M261.5 212.4C261.5 212.4 262.2 217.2 271.3 217.2C282.4 217.2 282.1 210.6 282.1 210.6" fill="#68E1FD"/>
<path opacity="0.68" d="M261.5 212.4C261.5 212.4 262.2 217.2 271.3 217.2C282.4 217.2 282.1 210.6 282.1 210.6" fill="#2A343D"/>
<path d="M251.2 195.1C251.2 195.1 252.3 215.6 272.2 215.2C290.6 214.8 291.5 195.1 291.5 195.1H251.2Z" fill="#68E1FD"/>
<path opacity="0.29" d="M270.4 213.5C268.2 212.1 266.4 210.3 264.9 208.1C262.2 204.3 260.8 199.8 260.6 195.1H251.1C251.1 195.1 252.2 215.6 272.1 215.2C272.8 215.2 273.4 215.1 274.1 215.1C272.9 214.8 271.6 214.2 270.4 213.5Z" fill="#2A343D"/>
<path d="M271.4 207C282.501 207 291.5 201.717 291.5 195.2C291.5 188.683 282.501 183.4 271.4 183.4C260.299 183.4 251.3 188.683 251.3 195.2C251.3 201.717 260.299 207 271.4 207Z" fill="#FED337"/>
<path d="M271.4 207.7C259.9 207.7 250.6 202.1 250.6 195.2C250.6 188.3 259.9 182.7 271.4 182.7C282.9 182.7 292.2 188.3 292.2 195.2C292.2 202.1 282.8 207.7 271.4 207.7ZM271.4 184C260.6 184 251.9 189 251.9 195.2C251.9 201.4 260.7 206.4 271.4 206.4C282.1 206.4 290.9 201.4 290.9 195.2C290.9 189 282.1 184 271.4 184Z" fill="#EA6453"/>
<path d="M271.4 188.5C280.7 188.5 288.4 192.2 290.1 197.2C290.3 196.5 290.5 195.8 290.5 195.1C290.5 189.1 282 184.3 271.4 184.3C260.8 184.3 252.3 189.1 252.3 195.1C252.3 195.8 252.4 196.5 252.7 197.2C254.4 192.2 262.1 188.5 271.4 188.5Z" fill="#68E1FD"/>
<path d="M258.1 200.5C259.6 200.4 260.7 201.6 262.2 201.9C263.9 202.1 264.4 200 265.1 198.9C265.7 197.8 266.8 197.1 268 197C269.3 197 271.5 199.2 272.7 198.2C273.2 197.8 273.3 196.9 273.6 196.3C273.9 195.8 274.2 195.4 274.7 195.1C275.9 194.4 277.3 194.2 278.6 194.8C279.3 195 280.4 195.5 281.1 195.1C281.8 194.7 281.7 193.5 282 192.8C282.3 192 282.8 191.3 283.5 190.8C283 190.6 282.5 190.4 282 190.2C281.8 190.6 281.5 191 281.2 191.3C279.9 192.4 278.3 191.9 276.8 191.3C275.9 190.9 274.7 190.5 273.9 191.3C273.6 191.7 273.3 192.2 273.1 192.7C272.7 193.7 271.7 194.4 270.7 194.5C269.4 194.5 268.5 193.4 267.2 193.3C265.5 193.2 265.1 195.7 264.1 196.7C263.2 197.5 261.9 197.8 260.7 197.5C260.1 197.3 259.6 196.9 259.2 196.5C258.6 195.9 257.7 195.9 257.1 196.4C256.9 196.6 256.8 196.8 256.7 197.1C256.2 198.4 256.1 199.5 254.8 200.1L254.6 200.2C255 200.7 255.5 201.2 256.1 201.6C256.5 200.9 257.3 200.5 258.1 200.5Z" fill="#FED337"/>
<path d="M254.8 198.2C255.3 197.5 255.2 196.6 255.7 195.9C256.4 194.8 257.9 194.3 259.1 194.8C259.8 195.1 260.3 195.9 261.1 196.1C262.1 196.4 263.1 196 263.6 195.1C264.4 193.8 264.9 192.2 266.6 192C267.2 191.9 267.7 192 268.2 192.3C268.9 192.6 269.8 193.3 270.6 193.2C271.9 193.1 272.2 191.1 273 190.3C274.2 189.1 275.8 189.5 277.2 190.1C278.1 190.5 279.4 191.2 280.3 190.3C280.4 190.2 280.5 190.1 280.5 190C278.1 189.3 275.6 188.8 273.1 188.7C272.6 189.6 271.7 190.2 270.8 190.5C270 190.7 269.2 190.7 268.4 190.5C267.5 190.2 266.6 189.2 265.7 189.4C264.8 189.6 264 191 263.2 191.7C262.6 192.3 262 192.7 261.2 192.9C259.8 193.4 258.2 193.2 257 192.4C255 193.5 253.5 195.3 252.7 197.4C252.9 198 253.2 198.7 253.6 199.2C254.1 199 254.6 198.7 254.8 198.2Z" fill="#FED337"/>
<path d="M280.2 204.7L280.9 204.5H280.7C280.5 204.5 280.3 204.6 280.2 204.7Z" fill="#FED337"/>
<path d="M261.7 190.9C262.2 190.5 262.7 190.1 263 189.6C261.4 190 259.9 190.6 258.5 191.4C259.6 191.7 260.7 191.5 261.7 190.9Z" fill="#FED337"/>
<path d="M267.4 201.6C268.4 200.7 269.7 200.5 271 200.9C272.3 201.4 274.4 203.7 275.5 201.8C276.2 200.6 276.3 199.4 277.8 198.9C279.4 198.3 280.4 199.5 281.8 199.7C283.7 200.1 284.3 197.6 285.3 196.4C286.2 195.4 287.4 194.8 288.8 194.6C287.8 193.4 286.5 192.4 285.1 191.6C284.8 191.7 284.6 191.8 284.3 192C283.6 192.6 283.2 193.4 283.1 194.3C282.9 195.7 281.7 196.7 280.3 196.6C278.5 196.6 276.3 194.8 275 196.8C274.2 198 274.2 199.6 272.4 199.8C271.6 199.8 270.8 199.6 270.2 199.2C269.3 198.7 268.3 197.9 267.3 198.5C265.9 199.3 265.7 201.4 264.4 202.4C263.3 203.2 261.9 203.2 260.7 202.5C260 202.1 259.3 201.8 258.5 201.6C258.1 201.6 257.6 201.7 257.3 202C259.5 203.3 262 204.3 264.5 204.8C265.7 204.5 266.3 202.6 267.4 201.6Z" fill="#FED337"/>
<path d="M286.9 196.9C285.7 197.8 285.3 199.4 284.2 200.5C283.3 201.3 282.1 201.5 281 201.1C280.3 200.7 279.6 200.5 278.9 200.3C277.9 200.2 277.4 200.9 277 201.8C276.5 202.9 276.1 203.9 274.8 204.1C273.5 204.3 272.4 203.5 271.3 202.8C268.6 201.1 267.6 203.8 266 205.6C267.1 205.8 268.2 205.9 269.3 206C270.5 205.1 272 204.9 273.4 205.3C274 205.4 274.6 205.7 275.2 205.8C275.9 205.7 276.7 205.6 277.3 205.5L277.5 205.3C278.3 204.5 278.8 203.7 280 203.3C280.5 203.2 281 203.1 281.6 203.2C282.1 203.4 282.6 203.5 283.2 203.6L283.9 203.3C284.2 202.9 284.4 202.5 284.7 202C285.6 200.8 286.9 200 288.4 199.9C289.1 199.1 289.6 198.3 289.9 197.3C289.8 196.9 289.6 196.6 289.4 196.2C288.6 196 287.6 196.3 286.9 196.9Z" fill="#FED337"/>
<path d="M256.7 197.1C256.9 196.3 257.7 195.9 258.5 196.1C258.8 196.2 259 196.3 259.2 196.5C259.6 196.9 260.2 197.3 260.7 197.5C261.9 197.9 263.2 197.6 264.1 196.7C265.1 195.7 265.5 193.2 267.2 193.3C268.4 193.4 269.3 194.5 270.7 194.5C271.8 194.4 272.7 193.7 273.1 192.7C273.3 192.2 273.6 191.7 273.9 191.3C274.7 190.4 275.9 190.9 276.8 191.3C278.2 191.9 279.8 192.4 281.2 191.3C281.5 191 281.8 190.6 282 190.2C281.6 190 281.1 189.9 280.6 189.7C280.5 189.8 280.4 189.9 280.4 190C279.5 190.9 278.2 190.2 277.3 189.8C275.9 189.2 274.3 188.9 273.1 190C272.3 190.8 272 192.8 270.7 192.9C269.9 193 269 192.3 268.3 192C267.8 191.8 267.2 191.7 266.7 191.7C265 191.9 264.5 193.6 263.7 194.8C263.2 195.7 262.2 196.1 261.2 195.8C260.4 195.5 260 194.8 259.2 194.5C257.9 194 256.5 194.5 255.8 195.6C255.4 196.3 255.4 197.2 254.9 197.9C254.6 198.3 254.2 198.6 253.7 198.7C254 199.1 254.3 199.5 254.6 199.9L254.8 199.8C256 199.4 256.2 198.3 256.7 197.1Z" fill="#FED337"/>
<path d="M260.499 202.8C261.599 203.5 263.099 203.4 264.199 202.7C265.499 201.7 265.699 199.6 267.099 198.8C268.099 198.2 269.099 199 269.999 199.5C270.699 199.9 271.499 200.1 272.199 200.1C273.999 199.9 273.999 198.3 274.799 197.1C276.099 195 278.299 196.8 280.099 196.9C281.499 197 282.699 196 282.899 194.6C282.999 193.7 283.399 192.8 284.099 192.3C284.299 192.1 284.599 192 284.899 191.9C284.399 191.6 283.899 191.3 283.399 191.1C282.699 191.6 282.099 192.3 281.899 193.1C281.699 193.8 281.699 195 280.999 195.4C280.299 195.8 279.199 195.4 278.499 195.1C277.199 194.5 275.799 194.6 274.599 195.4C274.199 195.7 273.799 196.1 273.499 196.6C273.199 197.2 273.099 198.1 272.599 198.5C271.499 199.4 269.199 197.3 267.899 197.3C266.699 197.4 265.599 198.1 264.999 199.2C264.299 200.3 263.699 202.4 262.099 202.2C260.599 202 259.599 200.8 257.999 200.8C257.199 200.8 256.499 201.2 255.899 201.8C256.299 202.1 256.699 202.4 257.099 202.6C257.399 202.3 257.799 202.2 258.299 202.2C259.099 202.1 259.899 202.4 260.499 202.8Z" fill="#FED337"/>
<path d="M285.2 196.5C284.2 197.6 283.6 200.1 281.7 199.8C280.2 199.5 279.3 198.4 277.7 199C276.3 199.5 276.1 200.7 275.4 201.9C274.3 203.8 272.3 201.5 270.9 201C269.7 200.6 268.3 200.9 267.3 201.7C266.2 202.6 265.5 204.6 264.3 205.2C264.9 205.3 265.4 205.4 266 205.5C267.6 203.8 268.6 201 271.3 202.7C272.3 203.4 273.4 204.2 274.8 204C276.2 203.8 276.6 202.8 277 201.7C277.4 200.8 277.8 200.1 278.9 200.2C279.6 200.4 280.3 200.7 281 201C282.1 201.4 283.3 201.2 284.1 200.4C285.2 199.4 285.6 197.8 286.8 196.8C287.6 196.2 288.6 196 289.5 196C289.2 195.5 288.9 195 288.6 194.6C287.3 194.9 286.1 195.5 285.2 196.5Z" fill="#FED337"/>
<path d="M261.2 192.7C262 192.5 262.6 192.1 263.2 191.5C263.9 190.8 264.6 189.4 265.7 189.2C266.8 189 267.6 190.1 268.4 190.3C269.2 190.5 270 190.5 270.8 190.3C271.8 190 272.6 189.3 273.1 188.5C272.5 188.5 272 188.5 271.4 188.5H271.3C270.6 189.1 269.7 189.3 268.8 189C268.6 188.9 268.3 188.8 268.1 188.7C266.4 188.9 264.7 189.2 263 189.6C262.6 190.1 262.2 190.5 261.7 190.9C260.8 191.5 259.6 191.7 258.5 191.3C258 191.6 257.5 191.9 257 192.2C258.3 193 259.8 193.1 261.2 192.7Z" fill="#FED337"/>
<path d="M284.8 201.9C284.6 202.3 284.3 202.8 284 203.2C285.7 202.4 287.2 201.2 288.5 199.8C287.1 199.9 285.7 200.7 284.8 201.9Z" fill="#FED337"/>
<path d="M275.4 205.7C274.8 205.6 274.2 205.3 273.6 205.2C272.2 204.8 270.7 205.1 269.5 205.9C270.1 205.9 270.8 206 271.4 206C272.7 205.9 274.1 205.8 275.4 205.7Z" fill="#FED337"/>
<path d="M281.8 203.1C281.3 203 280.7 203 280.2 203.2C279 203.5 278.5 204.3 277.7 205.2L277.5 205.4C278.4 205.2 279.3 205 280.1 204.8C280.2 204.7 280.4 204.7 280.5 204.6H280.7C281.6 204.3 282.4 204 283.2 203.6C282.9 203.5 282.3 203.3 281.8 203.1Z" fill="#FED337"/>
<path opacity="0.1" d="M256.7 197.1C256.9 196.3 257.7 195.9 258.5 196.1C258.8 196.2 259 196.3 259.2 196.5C259.6 196.9 260.2 197.3 260.7 197.5C261.9 197.9 263.2 197.6 264.1 196.7C265.1 195.7 265.5 193.2 267.2 193.3C268.4 193.4 269.3 194.5 270.7 194.5C271.8 194.4 272.7 193.7 273.1 192.7C273.3 192.2 273.6 191.7 273.9 191.3C274.7 190.4 275.9 190.9 276.8 191.3C278.2 191.9 279.8 192.4 281.2 191.3C281.5 191 281.8 190.6 282 190.2C281.6 190 281.1 189.9 280.6 189.7C280.5 189.8 280.4 189.9 280.4 190C279.5 190.9 278.2 190.2 277.3 189.8C275.9 189.2 274.3 188.9 273.1 190C272.3 190.8 272 192.8 270.7 192.9C269.9 193 269 192.3 268.3 192C267.8 191.8 267.2 191.7 266.7 191.7C265 191.9 264.5 193.6 263.7 194.8C263.2 195.7 262.2 196.1 261.2 195.8C260.4 195.5 260 194.8 259.2 194.5C257.9 194 256.5 194.5 255.8 195.6C255.4 196.3 255.4 197.2 254.9 197.9C254.6 198.3 254.2 198.6 253.7 198.7C254 199.1 254.3 199.5 254.6 199.9L254.8 199.8C256 199.4 256.2 198.3 256.7 197.1Z" fill="#2A343D"/>
<path opacity="0.1" d="M260.499 202.8C261.599 203.5 263.099 203.4 264.199 202.7C265.499 201.7 265.699 199.6 267.099 198.8C268.099 198.2 269.099 199 269.999 199.5C270.699 199.9 271.499 200.1 272.199 200.1C273.999 199.9 273.999 198.3 274.799 197.1C276.099 195 278.299 196.8 280.099 196.9C281.499 197 282.699 196 282.899 194.6C282.999 193.7 283.399 192.8 284.099 192.3C284.299 192.1 284.599 192 284.899 191.9C284.399 191.6 283.899 191.3 283.399 191.1C282.699 191.6 282.099 192.3 281.899 193.1C281.699 193.8 281.699 195 280.999 195.4C280.299 195.8 279.199 195.4 278.499 195.1C277.199 194.5 275.799 194.6 274.599 195.4C274.199 195.7 273.799 196.1 273.499 196.6C273.199 197.2 273.099 198.1 272.599 198.5C271.499 199.4 269.199 197.3 267.899 197.3C266.699 197.4 265.599 198.1 264.999 199.2C264.299 200.3 263.699 202.4 262.099 202.2C260.599 202 259.599 200.8 257.999 200.8C257.199 200.8 256.499 201.2 255.899 201.8C256.299 202.1 256.699 202.4 257.099 202.6C257.399 202.3 257.799 202.2 258.299 202.2C259.099 202.1 259.899 202.4 260.499 202.8Z" fill="#2A343D"/>
<path opacity="0.1" d="M285.2 196.5C284.2 197.6 283.6 200.1 281.7 199.8C280.2 199.5 279.3 198.4 277.7 199C276.3 199.5 276.1 200.7 275.4 201.9C274.3 203.8 272.3 201.5 270.9 201C269.7 200.6 268.3 200.9 267.3 201.7C266.2 202.6 265.5 204.6 264.3 205.2C264.9 205.3 265.4 205.4 266 205.5C267.6 203.8 268.6 201 271.3 202.7C272.3 203.4 273.4 204.2 274.8 204C276.2 203.8 276.6 202.8 277 201.7C277.4 200.8 277.8 200.1 278.9 200.2C279.6 200.4 280.3 200.7 281 201C282.1 201.4 283.3 201.2 284.1 200.4C285.2 199.4 285.6 197.8 286.8 196.8C287.6 196.2 288.6 196 289.5 196C289.2 195.5 288.9 195 288.6 194.6C287.3 194.9 286.1 195.5 285.2 196.5Z" fill="#2A343D"/>
<path opacity="0.1" d="M261.2 192.7C262 192.5 262.6 192.1 263.2 191.5C263.9 190.8 264.6 189.4 265.7 189.2C266.8 189 267.6 190.1 268.4 190.3C269.2 190.5 270 190.5 270.8 190.3C271.8 190 272.6 189.3 273.1 188.5C272.5 188.5 272 188.5 271.4 188.5H271.3C270.6 189.1 269.7 189.3 268.8 189C268.6 188.9 268.3 188.8 268.1 188.7C266.4 188.9 264.7 189.2 263 189.6C262.6 190.1 262.2 190.5 261.7 190.9C260.8 191.5 259.6 191.7 258.5 191.3C258 191.6 257.5 191.9 257 192.2C258.3 193 259.8 193.1 261.2 192.7Z" fill="#2A343D"/>
<path opacity="0.1" d="M284.8 201.9C284.6 202.3 284.3 202.8 284 203.2C285.7 202.4 287.2 201.2 288.5 199.8C287.1 199.9 285.7 200.7 284.8 201.9Z" fill="#2A343D"/>
<path opacity="0.1" d="M275.4 205.7C274.8 205.6 274.2 205.3 273.6 205.2C272.2 204.8 270.7 205.1 269.5 205.9C270.1 205.9 270.8 206 271.4 206C272.7 205.9 274.1 205.8 275.4 205.7Z" fill="#2A343D"/>
<path opacity="0.1" d="M281.8 203.1C281.3 203 280.7 203 280.2 203.2C279 203.5 278.5 204.3 277.7 205.2L277.5 205.4C278.4 205.2 279.3 205 280.1 204.8C280.2 204.7 280.4 204.7 280.5 204.6H280.7C281.6 204.3 282.4 204 283.2 203.6C282.9 203.5 282.3 203.3 281.8 203.1Z" fill="#2A343D"/>
<path d="M261.5 199.5C265.09 199.5 268 197.844 268 195.8C268 193.757 265.09 192.1 261.5 192.1C257.91 192.1 255 193.757 255 195.8C255 197.844 257.91 199.5 261.5 199.5Z" fill="#F8F5E6"/>
<path opacity="0.29" d="M261.5 199.5C265.09 199.5 268 197.844 268 195.8C268 193.757 265.09 192.1 261.5 192.1C257.91 192.1 255 193.757 255 195.8C255 197.844 257.91 199.5 261.5 199.5Z" fill="#2A343D"/>
<path d="M261.5 198.4C265.09 198.4 268 196.743 268 194.7C268 192.657 265.09 191 261.5 191C257.91 191 255 192.657 255 194.7C255 196.743 257.91 198.4 261.5 198.4Z" fill="#F8F5E6"/>
<path d="M262.3 197.3C264.785 197.3 266.8 196.315 266.8 195.1C266.8 193.885 264.785 192.9 262.3 192.9C259.815 192.9 257.8 193.885 257.8 195.1C257.8 196.315 259.815 197.3 262.3 197.3Z" fill="#EF7816"/>
<path d="M263.8 195.6C264.628 195.6 265.3 195.197 265.3 194.7C265.3 194.203 264.628 193.8 263.8 193.8C262.971 193.8 262.3 194.203 262.3 194.7C262.3 195.197 262.971 195.6 263.8 195.6Z" fill="#F8F5E6"/>
<path d="M263.8 203.8C267.39 203.8 270.3 202.143 270.3 200.1C270.3 198.056 267.39 196.4 263.8 196.4C260.21 196.4 257.3 198.056 257.3 200.1C257.3 202.143 260.21 203.8 263.8 203.8Z" fill="#F8F5E6"/>
<path opacity="0.29" d="M263.8 203.8C267.39 203.8 270.3 202.143 270.3 200.1C270.3 198.056 267.39 196.4 263.8 196.4C260.21 196.4 257.3 198.056 257.3 200.1C257.3 202.143 260.21 203.8 263.8 203.8Z" fill="#2A343D"/>
<path d="M263.8 202.7C267.39 202.7 270.3 201.043 270.3 199C270.3 196.956 267.39 195.3 263.8 195.3C260.21 195.3 257.3 196.956 257.3 199C257.3 201.043 260.21 202.7 263.8 202.7Z" fill="#F8F5E6"/>
<path d="M264.6 201.6C267.085 201.6 269.1 200.615 269.1 199.4C269.1 198.185 267.085 197.2 264.6 197.2C262.114 197.2 260.1 198.185 260.1 199.4C260.1 200.615 262.114 201.6 264.6 201.6Z" fill="#EF7816"/>
<path d="M266.1 199.9C266.928 199.9 267.6 199.497 267.6 199C267.6 198.503 266.928 198.1 266.1 198.1C265.271 198.1 264.6 198.503 264.6 199C264.6 199.497 265.271 199.9 266.1 199.9Z" fill="#F8F5E6"/>
<path d="M282.7 195L282.5 194.4C283.3 194.4 284 194.7 284.6 195.3V195.8C284.5 195.8 283.2 194.8 282.7 195Z" fill="#99CE45"/>
<path d="M277.6 203.5C277.5 202.9 277.8 202.3 278.4 202.2C278.5 202.2 278.6 202.2 278.7 202.2C280.1 202.2 279.9 203.3 279.9 203.3L280.2 202.1C279.8 201.5 279 201.2 278.3 201.4C277.6 201.6 277.1 202.3 277 203.1L277.6 203.5Z" fill="#99CE45"/>
<path d="M277.6 203.5C278.3 204.1 279.3 204 279.9 203.3C279.9 203.3 279.9 204.5 278.8 204.5C277.7 204.5 277 203 277 203" fill="#99CE45"/>
<path d="M277.399 194.1C277.999 194.3 278.399 195 278.199 195.6C278.099 195.8 277.999 196 277.899 196.1L278.999 196.7C279.299 195.9 279.099 195 278.599 194.3C277.799 193.5 277.399 194.1 277.399 194.1Z" fill="#99CE45"/>
<path d="M284.7 200.9C284 200.8 283.6 200.2 283.7 199.5C283.7 199.3 283.8 199.1 284 198.9L282.9 198.4C282.9 198.4 282.6 200 283.5 200.8C284.4 201.6 284.7 200.9 284.7 200.9Z" fill="#99CE45"/>
<path d="M270 202.4C270.7 202.3 271.3 202.8 271.4 203.4C271.4 203.6 271.4 203.8 271.3 204L272.5 204.1C272.5 204.1 272.3 202.5 271.2 202.1C270.1 201.7 270 202.4 270 202.4Z" fill="#99CE45"/>
<path d="M268.5 192.1C267.8 192 267.4 191.4 267.5 190.7C267.5 190.5 267.6 190.3 267.8 190.1L266.7 189.6C266.5 190.4 266.7 191.3 267.3 192C268.2 192.7 268.5 192.1 268.5 192.1Z" fill="#99CE45"/>
<path d="M280.8 191.6C280.3 192.1 279.6 192.1 279.1 191.6C279 191.4 278.8 191.3 278.8 191.1L277.7 191.7C277.7 191.7 278.8 192.9 280 192.6C281.2 192.3 280.8 191.6 280.8 191.6Z" fill="#99CE45"/>
<path d="M281.9 196.8C281.7 196.8 281.5 197 281.5 197.2C281.5 197.4 281.7 197.6 281.9 197.6C282.1 197.6 282.3 197.4 282.3 197.2C282.3 197 282.1 196.8 281.9 196.8Z" fill="#EA6453"/>
<path d="M280.1 193.4C279.9 193.4 279.7 193.6 279.7 193.8C279.7 194 279.9 194.2 280.1 194.2C280.3 194.2 280.5 194 280.5 193.8C280.5 193.6 280.3 193.4 280.1 193.4Z" fill="#EA6453"/>
<path d="M274.9 200.2C274.7 200.2 274.5 200.4 274.5 200.6C274.5 200.8 274.7 201 274.9 201C275.1 201 275.3 200.8 275.3 200.6C275.3 200.4 275.1 200.2 274.9 200.2Z" fill="#EA6453"/>
<path d="M269.7 193.9C269.5 193.9 269.3 194.1 269.3 194.3C269.3 194.5 269.5 194.7 269.7 194.7C269.9 194.7 270.1 194.5 270.1 194.3C270 194.1 269.9 193.9 269.7 193.9Z" fill="#EA6453"/>
<path d="M285.799 197.1C285.599 197.1 285.399 197.3 285.399 197.5C285.399 197.7 285.599 197.9 285.799 197.9C285.999 197.9 286.199 197.7 286.199 197.5C286.199 197.2 285.999 197.1 285.799 197.1Z" fill="#EA6453"/>
<path d="M269.2 204.6C269 204.6 268.8 204.8 268.8 205C268.8 205.2 269 205.4 269.2 205.4C269.4 205.4 269.6 205.2 269.6 205C269.6 204.8 269.4 204.6 269.2 204.6Z" fill="#EA6453"/>
<path d="M274.7 204.7C274.5 204.7 274.3 204.9 274.3 205.1C274.3 205.3 274.5 205.5 274.7 205.5C274.9 205.5 275.1 205.3 275.1 205.1C275.1 204.9 274.9 204.7 274.7 204.7Z" fill="#EA6453"/>
<path d="M277.1 190.2C276.9 190.2 276.7 190.4 276.7 190.6C276.7 190.8 276.9 191 277.1 191C277.3 191 277.5 190.8 277.5 190.6C277.5 190.4 277.3 190.2 277.1 190.2Z" fill="#EA6453"/>
<path d="M284.7 193.5C284.5 193.5 284.3 193.7 284.3 193.9C284.3 194.1 284.5 194.3 284.7 194.3C284.9 194.3 285.1 194.1 285.1 193.9C285.1 193.7 285 193.5 284.7 193.5Z" fill="#EA6453"/>
<path d="M286.2 198.6C286 198.6 285.8 198.8 285.8 199C285.8 199.2 286 199.4 286.2 199.4C286.4 199.4 286.6 199.2 286.6 199C286.6 198.7 286.5 198.6 286.2 198.6Z" fill="#EA6453"/>
<path d="M256.699 202.5C256.499 202.5 256.399 202.6 256.399 202.8C256.399 203 256.499 203.1 256.699 203.1C256.899 203.1 256.999 203 256.999 202.8C256.999 202.6 256.799 202.5 256.699 202.5Z" fill="#EA6453"/>
<path d="M264.3 190C264.1 190 263.9 190.2 264 190.4C264 190.6 264.2 190.7 264.3 190.7C264.5 190.7 264.7 190.5 264.6 190.3C264.6 190.2 264.5 190 264.3 190Z" fill="#EA6453"/>
<path d="M68.5996 237.8V259.6H103.9V237.8" fill="#EA6453"/>
<path d="M86.1996 246.5C95.9198 246.5 103.8 242.604 103.8 237.8C103.8 232.995 95.9198 229.1 86.1996 229.1C76.4794 229.1 68.5996 232.995 68.5996 237.8C68.5996 242.604 76.4794 246.5 86.1996 246.5Z" fill="#5C2D1D"/>
<path d="M86.1996 269.2C95.9198 269.2 103.8 265.305 103.8 260.5C103.8 255.695 95.9198 251.8 86.1996 251.8C76.4794 251.8 68.5996 255.695 68.5996 260.5C68.5996 265.305 76.4794 269.2 86.1996 269.2Z" fill="#EA6453"/>
<path d="M106 187.2C102.3 185.7 97.0999 180.6 92.5999 180.8C90.8999 185 90.3999 189.9 89.8999 194.2C88.9999 201.6 88.8999 209.1 89.3999 216.5C89.4999 218.2 89.5999 219.8 89.7999 221.5C89.7999 222 89.9999 222.5 90.1999 222.9V240.2C90.1999 240.5 90.4999 240.7 90.7999 240.7C90.9999 240.7 91.1999 240.5 91.2999 240.2C91.2999 234.7 91.2999 229.1 91.2999 223.6C92.9999 223 94.6999 222.2 96.2999 221.3C99.5999 219.2 102.1 216.1 103.4 212.4C106.2 204.5 104.4 195.6 107.2 187.8C106.8 187.5 106.4 187.3 106 187.2Z" fill="#2A343D"/>
<path d="M98.3996 174.2C96.2996 175.4 94.5996 177.2 93.3996 179.3C93.0996 179.8 92.7996 180.3 92.5996 180.8L92.3996 181.1C92.0996 182 91.7996 182.9 91.5996 183.8C91.9996 183.1 92.6996 182.6 93.4996 182.3C94.3996 181.9 95.4996 181.8 96.4996 182C97.4996 182.4 98.3996 182.8 99.1996 183.4C100.5 184.2 101.7 185 102.9 185.8C108.7 189.5 116.5 189.9 121 184.5C121.1 184.3 121.1 184.1 121.2 183.8C121.7 180.4 111.3 166.7 98.3996 174.2Z" fill="#99CE45"/>
<path d="M118.299 187C118.499 186.8 118.799 186.7 118.999 186.5C118.999 186.3 118.999 186.2 118.799 186.1C115.299 182.5 111.499 178.9 106.599 177.1C103.099 175.8 99.3992 175.4 95.7992 176C95.3992 176.5 94.9992 176.9 94.6992 177.4C98.5992 176.1 103.599 176.9 107.199 178.4C111.499 180.2 114.899 183.5 118.099 186.8C118.199 186.9 118.199 187 118.299 187Z" fill="#2A343D"/>
<path d="M59.0996 194.9C53.8996 197.6 50.7996 203.2 51.1996 209C51.5996 219.4 68.6996 209.2 73.2996 200.5C77.8996 191.8 78.5996 204.2 78.5996 204.2" fill="#2A343D"/>
<path d="M74.4996 191.3C71.2996 191.2 68.0996 191.7 64.9996 192.6C62.8996 193.1 60.8996 193.9 59.0996 194.9C60.1996 195.6 61.2996 196.2 62.4996 196.7C64.6996 197.6 66.8996 198.7 67.9996 200.7C68.2996 201.2 68.4996 201.7 68.6996 202.3C69.7996 205.7 68.7996 209.9 70.2996 213.3C71.7996 216.9 74.5996 219.8 78.5996 220C83.3996 220.3 85.5996 215.7 86.5996 211.6C87.5996 207.5 88.8996 202.1 87.2996 198C85.5996 193.2 79.0996 191.5 74.4996 191.3Z" fill="#99CE45"/>
<path d="M80.8992 207.5C78.8992 200.9 74.5992 194.7 68.2992 191.8H68.0992L67.7992 191.9L66.6992 192.2C73.9992 194.9 78.5992 202.1 80.4992 209.5C82.8992 219 82.0992 229.2 82.0992 238.8C82.1992 239.1 82.3992 239.3 82.6992 239.2C82.8992 239.2 83.0992 239 83.0992 238.8C82.9992 228.6 83.9992 217.5 80.8992 207.5Z" fill="#2A343D"/>
</svg>
